<svg width="25" height="25" viewBox="0 0 25 25" fill="none" xmlns="http://www.w3.org/2000/svg">
<path d="M10.9375 3.125C7.92656 3.125 5.46875 5.58281 5.46875 8.59375C5.46875 10.4766 6.42969 12.15 7.88594 13.1352C5.09922 14.3305 3.125 17.0938 3.125 20.3125H4.6875C4.6875 16.8516 7.47656 14.0625 10.9375 14.0625C12.0125 14.0625 13.0109 14.3422 13.8906 14.8203C12.9907 15.9323 12.4997 17.3195 12.5 18.75C12.5 22.1922 15.3078 25 18.75 25C22.1922 25 25 22.1922 25 18.75C25 15.3078 22.1922 12.5 18.75 12.5C17.4336 12.5018 16.1515 12.9202 15.0875 13.6953C14.7422 13.4789 14.3688 13.2969 13.9891 13.1344C14.7326 12.6329 15.3418 11.9568 15.7632 11.1651C16.1846 10.3735 16.4054 9.49057 16.4062 8.59375C16.4062 5.58281 13.9484 3.125 10.9375 3.125ZM10.9375 4.6875C13.1039 4.6875 14.8438 6.42734 14.8438 8.59375C14.8438 10.7602 13.1039 12.5 10.9375 12.5C8.77109 12.5 7.03125 10.7602 7.03125 8.59375C7.03125 6.42734 8.77109 4.6875 10.9375 4.6875ZM18.75 14.0625C21.3484 14.0625 23.4375 16.1516 23.4375 18.75C23.4375 21.3484 21.3484 23.4375 18.75 23.4375C16.1516 23.4375 14.0625 21.3484 14.0625 18.75C14.0625 16.1516 16.1516 14.0625 18.75 14.0625ZM17.9688 15.625V17.9688H15.625V19.5312H17.9688V21.875H19.5312V19.5312H21.875V17.9688H19.5312V15.625H17.9688Z" fill="white"/>
</svg>
