<svg width="144" height="50" viewBox="0 0 144 50" fill="none" xmlns="http://www.w3.org/2000/svg">
<rect width="144" height="49.4" rx="6" fill="#1C1C1C"/>
<path d="M28.95 10.2207C29.1247 11.8168 28.4956 13.3897 27.5762 14.5458C26.6168 15.6839 25.082 16.5544 23.5872 16.4423C23.3916 14.9065 24.149 13.2733 24.9968 12.2769C25.9551 11.1462 27.6193 10.2799 28.95 10.2207Z" fill="white"/>
<path d="M33.8435 19.4282C33.6767 19.5283 30.9121 21.1874 30.9424 24.571C30.9782 28.6571 34.498 30.0078 34.5401 30.0216C34.519 30.1168 33.9888 31.9731 32.6687 33.8537C31.5662 35.5123 30.4112 37.1338 28.5766 37.1613C27.7041 37.182 27.1151 36.9299 26.5012 36.6671C25.8612 36.3932 25.1943 36.1078 24.1511 36.1078C23.0451 36.1078 22.3486 36.4027 21.6769 36.687C21.0958 36.9331 20.5332 37.1712 19.7403 37.2036C17.993 37.2681 16.6581 35.4351 15.5157 33.7913C13.2319 30.4372 11.4541 24.3394 13.8378 20.1899C14.9928 18.1548 17.0988 16.8443 19.35 16.8094C20.3413 16.789 21.2921 17.1731 22.1256 17.5099C22.7629 17.7674 23.3317 17.9972 23.7976 17.9972C24.2068 17.9972 24.7596 17.7766 25.4039 17.5194C26.4194 17.1142 27.662 16.6183 28.9279 16.7522C29.7937 16.7776 32.2573 17.096 33.8468 19.4262L33.8435 19.4282Z" fill="white"/>
<path fill-rule="evenodd" clip-rule="evenodd" d="M46.4984 11.1317H44.029V18.5193H46.4984C48.6827 18.5193 49.9658 17.1524 49.9658 14.8229C49.9658 12.4986 48.6776 11.1317 46.4984 11.1317ZM44.9455 11.9611V17.6899H46.4373C48.1023 17.6899 49.0289 16.666 49.0289 14.8332C49.0289 12.985 48.1074 11.9611 46.4373 11.9611H44.9455Z" fill="white"/>
<path fill-rule="evenodd" clip-rule="evenodd" d="M53.5058 18.6115C52.0394 18.6115 51.0517 17.5517 51.0517 15.8571C51.0517 14.1574 52.0394 13.1027 53.5058 13.1027C54.9671 13.1027 55.9549 14.1574 55.9549 15.8571C55.9549 17.5517 54.9671 18.6115 53.5058 18.6115ZM55.0536 15.8571C55.0536 17.1114 54.4427 17.8282 53.5058 17.8282C52.569 17.8282 51.9529 17.1114 51.9529 15.8571C51.9529 14.6028 52.569 13.886 53.5058 13.886C54.4427 13.886 55.0536 14.6028 55.0536 15.8571Z" fill="white"/>
<path d="M61.5519 18.5193H62.4531L63.9296 13.1949H63.0539L61.9948 17.5261H61.9745L60.7729 13.1949H59.9175L58.7209 17.5261H58.7006L57.6415 13.1949H56.7607L58.2423 18.5193H59.1435L60.335 14.398H60.3553L61.5519 18.5193Z" fill="white"/>
<path d="M65.8353 13.1949H65.0002V18.5193H65.8862V15.3861C65.8862 14.485 66.431 13.8912 67.266 13.8912C68.0806 13.8912 68.4829 14.3622 68.4829 15.2223V18.5193H69.3688V15.0636C69.3688 13.8553 68.6967 13.1027 67.5358 13.1027C66.7161 13.1027 66.1509 13.4713 65.8556 14.0447H65.8353V13.1949Z" fill="white"/>
<path d="M70.8875 11.1317V18.5193H71.7734V11.1317H70.8875Z" fill="white"/>
<path fill-rule="evenodd" clip-rule="evenodd" d="M73.0578 15.8571C73.0578 17.5517 74.0456 18.6115 75.512 18.6115C76.9733 18.6115 77.961 17.5517 77.961 15.8571C77.961 14.1574 76.9733 13.1027 75.512 13.1027C74.0456 13.1027 73.0578 14.1574 73.0578 15.8571ZM75.512 17.8282C76.4488 17.8282 77.0598 17.1114 77.0598 15.8571C77.0598 14.6028 76.4488 13.886 75.512 13.886C74.5751 13.886 73.959 14.6028 73.959 15.8571C73.959 17.1114 74.5751 17.8282 75.512 17.8282Z" fill="white"/>
<path fill-rule="evenodd" clip-rule="evenodd" d="M80.7475 18.6115C79.6935 18.6115 78.9858 17.9715 78.9858 17.0141C78.9858 16.1028 79.6833 15.5294 80.9053 15.4578L82.4226 15.3707V14.9253C82.4226 14.2751 81.9949 13.886 81.2617 13.886C80.5795 13.886 80.1518 14.2086 80.0398 14.7308H79.1844C79.2455 13.8092 80.0296 13.1027 81.2821 13.1027C82.5245 13.1027 83.3086 13.7785 83.3086 14.8383V18.5193H82.4684V17.6029H82.4481C82.1324 18.2121 81.4603 18.6115 80.7475 18.6115ZM82.4226 16.497C82.4226 17.265 81.7811 17.8537 80.9461 17.8537C80.3096 17.8537 79.887 17.521 79.887 17.0141C79.887 16.5124 80.2943 16.195 81.0072 16.1489L82.4226 16.0619V16.497Z" fill="white"/>
<path fill-rule="evenodd" clip-rule="evenodd" d="M84.5217 15.8571C84.5217 17.5261 85.4382 18.6115 86.7875 18.6115C87.5512 18.6115 88.1571 18.2326 88.4982 17.6182H88.5135V18.5193H89.3587V11.1317H88.4728V14.0601H88.4524C88.1367 13.4765 87.5257 13.1027 86.7671 13.1027C85.4331 13.1027 84.5217 14.1881 84.5217 15.8571ZM86.9555 13.886C86.0186 13.886 85.428 14.654 85.428 15.8571C85.428 17.0653 86.0186 17.8282 86.9555 17.8282C87.8669 17.8282 88.4779 17.05 88.4779 15.8571C88.4779 14.6693 87.8669 13.886 86.9555 13.886Z" fill="white"/>
<path fill-rule="evenodd" clip-rule="evenodd" d="M95.5834 18.6115C94.117 18.6115 93.1292 17.5517 93.1292 15.8571C93.1292 14.1574 94.117 13.1027 95.5834 13.1027C97.0446 13.1027 98.0324 14.1574 98.0324 15.8571C98.0324 17.5517 97.0446 18.6115 95.5834 18.6115ZM97.1312 15.8571C97.1312 17.1114 96.5202 17.8282 95.5833 17.8282C94.6465 17.8282 94.0304 17.1114 94.0304 15.8571C94.0304 14.6028 94.6465 13.886 95.5833 13.886C96.5202 13.886 97.1312 14.6028 97.1312 15.8571Z" fill="white"/>
<path d="M100.106 13.1949H99.271V18.5193H100.157V15.3861C100.157 14.485 100.702 13.8912 101.537 13.8912C102.351 13.8912 102.754 14.3622 102.754 15.2223V18.5193H103.64V15.0636C103.64 13.8553 102.968 13.1027 101.807 13.1027C100.987 13.1027 100.422 13.4713 100.126 14.0447H100.106V13.1949Z" fill="white"/>
<path d="M108.77 11.9099H107.884V13.1949H107.094V13.927H107.884V17.137C107.884 18.1609 108.26 18.5603 109.233 18.5603C109.442 18.5603 109.686 18.5449 109.793 18.5193V17.7718C109.732 17.7821 109.528 17.7974 109.426 17.7974C108.973 17.7974 108.77 17.5773 108.77 17.0909V13.927H109.798V13.1949H108.77V11.9099Z" fill="white"/>
<path d="M111.133 11.1317V18.5193H112.019V15.4168C112.019 14.4953 112.564 13.8912 113.445 13.8912C114.275 13.8912 114.698 14.398 114.698 15.2427V18.5193H115.583V15.0789C115.583 13.8912 114.881 13.1027 113.72 13.1027C112.915 13.1027 112.335 13.4509 112.04 14.0447H112.019V11.1317H111.133Z" fill="white"/>
<path fill-rule="evenodd" clip-rule="evenodd" d="M121.44 16.9937H120.569C120.422 17.4954 119.928 17.8384 119.256 17.8384C118.304 17.8384 117.708 17.1677 117.708 16.1489V16.0977H121.506V15.7598C121.506 14.1471 120.625 13.1027 119.195 13.1027C117.733 13.1027 116.797 14.2239 116.797 15.8776C116.797 17.5517 117.718 18.6115 119.235 18.6115C120.391 18.6115 121.287 17.9254 121.44 16.9937ZM119.179 13.8758C118.35 13.8758 117.769 14.5158 117.713 15.4014H120.59C120.569 14.5106 120.014 13.8758 119.179 13.8758Z" fill="white"/>
<path fill-rule="evenodd" clip-rule="evenodd" d="M52.6085 36.6297L51.3254 32.818H45.9793L44.6962 36.6297H42.4314L47.4956 22.5261H49.8479L54.9122 36.6297H52.6085ZM46.5333 31.0587L48.6232 24.8718H48.6815L50.7714 31.0587H46.5333Z" fill="white"/>
<path fill-rule="evenodd" clip-rule="evenodd" d="M66.3118 31.4887C66.3118 28.234 64.6011 26.1815 62.0057 26.1815C60.5282 26.1815 59.3521 26.9341 58.7494 28.1167H58.7105V26.3477H56.679V40.031H58.7786V34.9389H58.8272C59.4104 36.0824 60.5768 36.8057 62.0446 36.8057C64.6108 36.8057 66.3118 34.7434 66.3118 31.4887ZM61.4517 35.0171C63.1138 35.0171 64.1539 33.6487 64.1539 31.4887C64.1539 29.3385 63.1138 27.9604 61.4517 27.9604C59.8478 27.9604 58.7689 29.3678 58.7689 31.4887C58.7689 33.6292 59.8381 35.0171 61.4517 35.0171Z" fill="white"/>
<path fill-rule="evenodd" clip-rule="evenodd" d="M73.7261 26.1815C76.3214 26.1815 78.0322 28.234 78.0322 31.4887C78.0322 34.7434 76.3311 36.8057 73.765 36.8057C72.2972 36.8057 71.1308 36.0824 70.5476 34.9389H70.499V40.031H68.3994V26.3477H70.4309V28.1167H70.4698C71.0725 26.9341 72.2486 26.1815 73.7261 26.1815ZM75.8743 31.4887C75.8743 33.6487 74.8342 35.0171 73.172 35.0171C71.5585 35.0171 70.4892 33.6292 70.4892 31.4887C70.4892 29.3678 71.5682 27.9604 73.172 27.9604C74.8342 27.9604 75.8743 29.3385 75.8743 31.4887Z" fill="white"/>
<path d="M86.4065 32.7007H84.2583C84.3944 35.2516 86.4939 36.8643 89.6044 36.8643C92.9288 36.8643 95.0186 35.2125 95.0186 32.5736C95.0186 30.5113 93.8231 29.3482 90.9458 28.6641L89.4003 28.2829C87.5923 27.8333 86.8536 27.2469 86.8536 26.2499C86.8536 24.9989 88.0103 24.1388 89.7016 24.1388C91.393 24.1388 92.5497 24.9891 92.6761 26.3965H94.7951C94.727 23.9629 92.6955 22.2915 89.7308 22.2915C86.737 22.2915 84.6276 23.9629 84.6276 26.3965C84.6276 28.3611 85.8232 29.573 88.3991 30.1986L90.2168 30.6384C92.0345 31.088 92.8024 31.7428 92.8024 32.8375C92.8024 34.0983 91.5291 35.0171 89.76 35.0171C87.9131 35.0171 86.562 34.0983 86.4065 32.7007Z" fill="white"/>
<path d="M99.9154 23.914H97.8061V26.3477H96.3188V28.019H97.8061V33.9224C97.8061 35.9065 98.6128 36.6982 100.683 36.6982C101.15 36.6982 101.616 36.6591 101.85 36.6004V34.9291C101.714 34.9584 101.373 34.978 101.16 34.978C100.304 34.978 99.9154 34.5772 99.9154 33.6878V28.019H101.859V26.3477H99.9154V23.914Z" fill="white"/>
<path fill-rule="evenodd" clip-rule="evenodd" d="M103.354 31.4887C103.354 34.802 105.279 36.8252 108.204 36.8252C111.13 36.8252 113.055 34.802 113.055 31.4887C113.055 28.1852 111.121 26.162 108.204 26.162C105.288 26.162 103.354 28.1852 103.354 31.4887ZM108.204 35.0855C109.857 35.0855 110.916 33.7758 110.916 31.4887C110.916 29.2114 109.847 27.9017 108.204 27.9017C106.562 27.9017 105.493 29.2114 105.493 31.4887C105.493 33.7758 106.562 35.0855 108.204 35.0855Z" fill="white"/>
<path d="M115.152 26.3477H117.155V28.0972H117.203C117.543 26.895 118.457 26.1815 119.662 26.1815C119.964 26.1815 120.226 26.2304 120.382 26.2597V28.2243C120.216 28.1558 119.847 28.107 119.439 28.107C118.088 28.107 117.252 29.0159 117.252 30.4722V36.6297H115.152V26.3477Z" fill="white"/>
<path fill-rule="evenodd" clip-rule="evenodd" d="M128.933 33.6169H130.926C130.634 35.4935 128.865 36.8325 126.523 36.8325C123.519 36.8325 121.701 34.7898 121.701 31.5449C121.701 28.3195 123.548 26.1693 126.435 26.1693C129.273 26.1693 131.043 28.1827 131.043 31.3005V32.0238H123.82V32.1509C123.82 33.9395 124.89 35.1221 126.571 35.1221C127.767 35.1221 128.651 34.5161 128.933 33.6169ZM123.82 30.6694L128.933 30.6208C128.933 30.1876 128.753 29.3845 128.329 28.9586C127.906 28.5328 127.282 28.2095 126.435 28.2095C124.729 28.2095 123.82 29.3553 123.82 30.6694Z" fill="white"/>
</svg>
