<svg width="80" height="79" viewBox="0 0 80 79" fill="none" xmlns="http://www.w3.org/2000/svg">
<ellipse cx="40" cy="39.2" rx="40" ry="39.2" fill="#E7E7E7"/>
<path d="M55.8838 43.1162L52.5 39.7325V35.25C52.4961 32.1523 51.3438 29.1661 49.2658 26.8687C47.1878 24.5714 44.3318 23.1262 41.25 22.8125V20.25H38.75V22.8125C35.6682 23.1262 32.8122 24.5714 30.7342 26.8687C28.6562 29.1661 27.5039 32.1523 27.5 35.25V39.7325L24.1162 43.1162C23.8818 43.3506 23.7501 43.6685 23.75 44V47.75C23.75 48.0815 23.8817 48.3995 24.1161 48.6339C24.3505 48.8683 24.6685 49 25 49H33.75V49.9712C33.7228 51.557 34.2818 53.0971 35.3197 54.2963C36.3577 55.4955 37.8017 56.2695 39.375 56.47C40.244 56.5562 41.1214 56.4595 41.9507 56.1862C42.7801 55.913 43.5431 55.4691 44.1907 54.8833C44.8382 54.2974 45.356 53.5825 45.7106 52.7846C46.0653 51.9866 46.249 51.1232 46.25 50.25V49H55C55.3315 49 55.6495 48.8683 55.8839 48.6339C56.1183 48.3995 56.25 48.0815 56.25 47.75V44C56.2499 43.6685 56.1182 43.3506 55.8838 43.1162ZM43.75 50.25C43.75 51.2446 43.3549 52.1984 42.6517 52.9016C41.9484 53.6049 40.9946 54 40 54C39.0054 54 38.0516 53.6049 37.3483 52.9016C36.6451 52.1984 36.25 51.2446 36.25 50.25V49H43.75V50.25ZM53.75 46.5H26.25V44.5175L29.6337 41.1337C29.8682 40.8994 29.9999 40.5815 30 40.25V35.25C30 32.5978 31.0536 30.0543 32.9289 28.1789C34.8043 26.3036 37.3478 25.25 40 25.25C42.6522 25.25 45.1957 26.3036 47.0711 28.1789C48.9464 30.0543 50 32.5978 50 35.25V40.25C50.0001 40.5815 50.1318 40.8994 50.3662 41.1337L53.75 44.5175V46.5Z" fill="#353535"/>
</svg>
