<svg width="28" height="24" viewBox="0 0 28 24" fill="none" xmlns="http://www.w3.org/2000/svg">
<path d="M5.3375 2.62499L5.75938 3.45937L6.275 4.49999H10.25V9.18749H2.75V2.62499H5.3375ZM5.91875 0.749992H1.8125C1.56386 0.749992 1.3254 0.848764 1.14959 1.02458C0.973772 1.2004 0.875 1.43885 0.875 1.68749V10.125C0.875 10.3736 0.973772 10.6121 1.14959 10.7879C1.3254 10.9637 1.56386 11.0625 1.8125 11.0625H11.1875C11.4361 11.0625 11.6746 10.9637 11.8504 10.7879C12.0262 10.6121 12.125 10.3736 12.125 10.125V3.56249C12.125 3.31385 12.0262 3.0754 11.8504 2.89958C11.6746 2.72377 11.4361 2.62499 11.1875 2.62499H7.4375L6.7625 1.26562C6.68388 1.10958 6.56322 0.978626 6.41413 0.887518C6.26505 0.79641 6.09347 0.748776 5.91875 0.749992Z" fill="#077BC3"/>
<path d="M20.3375 2.62499L20.7594 3.45937L21.275 4.49999H25.25V9.18749H17.75V2.62499H20.3375ZM20.9187 0.749992H16.8125C16.5639 0.749992 16.3254 0.848764 16.1496 1.02458C15.9738 1.2004 15.875 1.43885 15.875 1.68749V10.125C15.875 10.3736 15.9738 10.6121 16.1496 10.7879C16.3254 10.9637 16.5639 11.0625 16.8125 11.0625H26.1875C26.4361 11.0625 26.6746 10.9637 26.8504 10.7879C27.0262 10.6121 27.125 10.3736 27.125 10.125V3.56249C27.125 3.31385 27.0262 3.0754 26.8504 2.89958C26.6746 2.72377 26.4361 2.62499 26.1875 2.62499H22.4375L21.7625 1.26562C21.6839 1.10958 21.5632 0.978626 21.4141 0.887518C21.265 0.79641 21.0935 0.748776 20.9187 0.749992Z" fill="#077BC3"/>
<path d="M5.3375 14.8125L5.75938 15.6469L6.275 16.6875H10.25V21.375H2.75V14.8125H5.3375ZM5.91875 12.9375H1.8125C1.56386 12.9375 1.3254 13.0363 1.14959 13.2121C0.973772 13.3879 0.875 13.6264 0.875 13.875V22.3125C0.875 22.5611 0.973772 22.7996 1.14959 22.9754C1.3254 23.1512 1.56386 23.25 1.8125 23.25H11.1875C11.4361 23.25 11.6746 23.1512 11.8504 22.9754C12.0262 22.7996 12.125 22.5611 12.125 22.3125V15.75C12.125 15.5014 12.0262 15.2629 11.8504 15.0871C11.6746 14.9113 11.4361 14.8125 11.1875 14.8125H7.4375L6.7625 13.4531C6.68388 13.2971 6.56322 13.1661 6.41413 13.075C6.26505 12.9839 6.09347 12.9363 5.91875 12.9375Z" fill="#077BC3"/>
<path d="M20.3375 14.8125L20.7594 15.6469L21.275 16.6875H25.25V21.375H17.75V14.8125H20.3375ZM20.9187 12.9375H16.8125C16.5639 12.9375 16.3254 13.0363 16.1496 13.2121C15.9738 13.3879 15.875 13.6264 15.875 13.875V22.3125C15.875 22.5611 15.9738 22.7996 16.1496 22.9754C16.3254 23.1512 16.5639 23.25 16.8125 23.25H26.1875C26.4361 23.25 26.6746 23.1512 26.8504 22.9754C27.0262 22.7996 27.125 22.5611 27.125 22.3125V15.75C27.125 15.5014 27.0262 15.2629 26.8504 15.0871C26.6746 14.9113 26.4361 14.8125 26.1875 14.8125H22.4375L21.7625 13.4531C21.6839 13.2971 21.5632 13.1661 21.4141 13.075C21.265 12.9839 21.0935 12.9363 20.9187 12.9375Z" fill="#077BC3"/>
</svg>
