<svg width="36" height="36" viewBox="0 0 36 36" fill="none" xmlns="http://www.w3.org/2000/svg">
<g clip-path="url(#clip0)">
<path d="M35.4312 7.92625C34.2057 8.46926 32.8892 8.83615 31.5052 9.00199C32.9332 8.14755 34.0016 6.80277 34.5109 5.21857C33.1693 6.01545 31.7009 6.57637 30.1696 6.87694C29.1399 5.77752 27.7759 5.04881 26.2896 4.80395C24.8032 4.55908 23.2776 4.81175 21.9496 5.52273C20.6216 6.23372 19.5654 7.36324 18.9452 8.73592C18.3249 10.1086 18.1752 11.6477 18.5193 13.1141C15.8007 12.9776 13.1412 12.2711 10.7134 11.0403C8.28562 9.80954 6.14375 8.08205 4.42682 5.96997C3.83975 6.9826 3.50219 8.15666 3.50219 9.40704C3.50154 10.5327 3.77875 11.641 4.30923 12.6338C4.83971 13.6266 5.60706 14.4732 6.54319 15.0983C5.45752 15.0638 4.39581 14.7704 3.44642 14.2427V14.3308C3.44631 15.9095 3.99244 17.4396 4.99214 18.6616C5.99183 19.8835 7.38353 20.722 8.93107 21.0347C7.92394 21.3072 6.86804 21.3473 5.84311 21.1521C6.27974 22.5105 7.13024 23.6983 8.27557 24.5494C9.42089 25.4004 10.8037 25.872 12.2304 25.8982C9.80849 27.7993 6.81747 28.8306 3.73849 28.826C3.19307 28.8262 2.64812 28.7943 2.10645 28.7306C5.2318 30.74 8.86993 31.8064 12.5856 31.8023C25.1634 31.8023 32.0394 21.3854 32.0394 12.351C32.0394 12.0575 32.0321 11.761 32.0189 11.4675C33.3563 10.5003 34.5108 9.30269 35.4282 7.93066L35.4312 7.92625Z" fill="#22A1DC"/>
</g>
<defs>
<clipPath id="clip0">
<rect width="35.2239" height="35.2219" fill="white" transform="translate(0.731445 0.680832)"/>
</clipPath>
</defs>
</svg>
