<svg width="44" height="43" viewBox="0 0 44 43" fill="none" xmlns="http://www.w3.org/2000/svg">
<path d="M39.2099 17.8427H37.7913V17.7696H21.9406V24.8139H31.8939C30.4418 28.9146 26.5399 31.8583 21.9406 31.8583C16.1048 31.8583 11.3734 27.1271 11.3734 21.2918C11.3734 15.4564 16.1048 10.7252 21.9406 10.7252C24.6343 10.7252 27.085 11.7414 28.951 13.4012L33.9325 8.41993C30.787 5.48859 26.5795 3.68083 21.9406 3.68083C12.2144 3.68083 4.32861 11.5661 4.32861 21.2918C4.32861 31.0174 12.2144 38.9027 21.9406 38.9027C31.6667 38.9027 39.5525 31.0174 39.5525 21.2918C39.5525 20.1109 39.431 18.9583 39.2099 17.8427Z" fill="#FFC107"/>
<path d="M6.35938 13.0948L12.1458 17.3381C13.7115 13.4619 17.5033 10.7252 21.9407 10.7252C24.6344 10.7252 27.0851 11.7414 28.9511 13.4012L33.9326 8.41993C30.7871 5.48859 26.5796 3.68083 21.9407 3.68083C15.1759 3.68083 9.30937 7.49976 6.35938 13.0948Z" fill="#FF3D00"/>
<path d="M21.9403 38.9027C26.4894 38.9027 30.6229 37.1618 33.7482 34.3309L28.2973 29.7186C26.4696 31.1084 24.2364 31.8601 21.9403 31.8583C17.3594 31.8583 13.4698 28.9375 12.0045 24.8615L6.26123 29.2862C9.17601 34.9895 15.0954 38.9027 21.9403 38.9027Z" fill="#4CAF50"/>
<path d="M39.2098 17.8427H37.7912V17.7696H21.9404V24.8139H31.8938C31.1992 26.7656 29.948 28.471 28.2948 29.7195L28.2975 29.7177L33.7484 34.33C33.3627 34.6805 39.5524 30.0972 39.5524 21.2918C39.5524 20.1109 39.4308 18.9583 39.2098 17.8427Z" fill="#1976D2"/>
</svg>
