<svg width="17" height="17" viewBox="0 0 17 17" fill="none" xmlns="http://www.w3.org/2000/svg">
<path d="M15.8759 8.27807C14.2845 5.33612 11.4937 3.55585 8.40534 3.55585C5.31701 3.55585 2.52146 5.33612 0.944234 8.27807L0.812012 8.50001L0.934789 8.72668C2.52618 11.6686 5.31701 13.4489 8.40534 13.4489C11.4937 13.4489 14.2892 11.6922 15.8759 8.72668L15.9987 8.50001L15.8759 8.27807ZM8.40534 12.4808C5.74673 12.4808 3.30535 10.9981 1.88868 8.50001C3.30535 6.00196 5.74673 4.51918 8.40534 4.51918C11.064 4.51918 13.477 6.00668 14.9173 8.50001C13.477 10.9981 11.0592 12.4808 8.40534 12.4808Z" fill="#067AC2"/>
<path d="M8.54246 5.27474C7.90219 5.27942 7.27765 5.47373 6.74775 5.83314C6.21784 6.19255 5.80633 6.70093 5.56518 7.29408C5.32404 7.88723 5.26408 8.53854 5.39288 9.16575C5.52168 9.79295 5.83346 10.3679 6.28885 10.818C6.74423 11.2681 7.32279 11.5732 7.95146 11.6947C8.58012 11.8162 9.23069 11.7487 9.82099 11.5006C10.4113 11.2526 10.9148 10.8352 11.2681 10.3011C11.6213 9.76706 11.8083 9.14031 11.8055 8.50002C11.8037 8.07381 11.7177 7.65216 11.5526 7.25922C11.3875 6.86628 11.1465 6.50979 10.8434 6.21017C10.5402 5.91055 10.181 5.6737 9.78613 5.51318C9.39129 5.35266 8.96867 5.27163 8.54246 5.27474ZM8.54246 10.8092C8.0902 10.8045 7.64939 10.6663 7.2754 10.412C6.90142 10.1576 6.61094 9.79838 6.44043 9.37946C6.26993 8.96054 6.22702 8.50057 6.31708 8.05734C6.40714 7.6141 6.62615 7.20736 6.94663 6.88819C7.2671 6.56903 7.67473 6.35167 8.11833 6.26342C8.56193 6.17517 9.02171 6.21996 9.43994 6.39217C9.85816 6.56438 10.2162 6.85633 10.469 7.23135C10.7219 7.60637 10.8583 8.04774 10.8611 8.50002C10.8623 8.80441 10.8032 9.10603 10.687 9.38738C10.5708 9.66873 10.3999 9.92421 10.1842 10.139C9.96852 10.3538 9.71234 10.5237 9.43052 10.6387C9.14871 10.7537 8.84685 10.8117 8.54246 10.8092Z" fill="#067AC2"/>
</svg>
