<svg width="50" height="50" viewBox="0 0 50 50" fill="none" xmlns="http://www.w3.org/2000/svg">
<path d="M0.770325 6.6001C0.770325 3.56253 3.23276 1.1001 6.27032 1.1001H43.5676C46.6052 1.1001 49.0676 3.56253 49.0676 6.6001V44.0001C49.0676 47.0377 46.6052 49.5001 43.5676 49.5001H6.27033C3.23276 49.5001 0.770325 47.0377 0.770325 44.0001V6.6001Z" fill="#C4C4C4"/>
<path d="M0.770325 6.6001C0.770325 3.56253 3.23276 1.1001 6.27032 1.1001H43.5676C46.6052 1.1001 49.0676 3.56253 49.0676 6.6001V44.0001C49.0676 47.0377 46.6052 49.5001 43.5676 49.5001H6.27033C3.23276 49.5001 0.770325 47.0377 0.770325 44.0001V6.6001Z" fill="url(#paint0_linear)"/>
<path d="M0.770325 6.6001C0.770325 3.56253 3.23276 1.1001 6.27032 1.1001H43.5676C46.6052 1.1001 49.0676 3.56253 49.0676 6.6001V44.0001C49.0676 47.0377 46.6052 49.5001 43.5676 49.5001H6.27033C3.23276 49.5001 0.770325 47.0377 0.770325 44.0001V6.6001Z" stroke="#C4C4C4"/>
<path d="M0.770325 6.6001C0.770325 3.56253 3.23276 1.1001 6.27032 1.1001H43.5676C46.6052 1.1001 49.0676 3.56253 49.0676 6.6001V44.0001C49.0676 47.0377 46.6052 49.5001 43.5676 49.5001H6.27033C3.23276 49.5001 0.770325 47.0377 0.770325 44.0001V6.6001Z" stroke="url(#paint1_linear)"/>
<path fill-rule="evenodd" clip-rule="evenodd" d="M14.8311 10.75C12.622 10.75 10.8311 12.5409 10.8311 14.75V34.25C10.8311 36.4591 12.622 38.25 14.8311 38.25H24.4171V28.842H21.1656V25.1755H24.4171V22.4717C24.4171 19.3337 26.3849 17.625 29.2602 17.625C30.6375 17.625 31.8204 17.7252 32.1656 17.7698V21.0495L30.1718 21.0505C28.6084 21.0505 28.3059 21.7743 28.3059 22.8352V25.1765H32.0346L31.5491 28.843H28.3059V38.25H34.3311C36.5403 38.25 38.3311 36.4591 38.3311 34.25V14.75C38.3311 12.5409 36.5403 10.75 34.3311 10.75H14.8311Z" fill="white"/>
<defs>
<linearGradient id="paint0_linear" x1="49.5676" y1="24.7512" x2="0.270325" y2="24.7512" gradientUnits="userSpaceOnUse">
<stop stop-color="#067AC2"/>
<stop offset="1" stop-color="#209EDB"/>
</linearGradient>
<linearGradient id="paint1_linear" x1="49.5676" y1="24.7512" x2="0.270325" y2="24.7512" gradientUnits="userSpaceOnUse">
<stop stop-color="#067AC2"/>
<stop offset="1" stop-color="#209EDB"/>
</linearGradient>
</defs>
</svg>
