<svg width="32" height="32" viewBox="0 0 32 32" fill="none" xmlns="http://www.w3.org/2000/svg">
<path d="M26.6667 4H5.33333C4.97971 4 4.64057 4.14048 4.39052 4.39052C4.14048 4.64057 4 4.97971 4 5.33333V26.6667C4 27.0203 4.14048 27.3594 4.39052 27.6095C4.64057 27.8595 4.97971 28 5.33333 28H16.82V18.72H13.7027V15.0867H16.82V12.42C16.82 9.32 18.7133 7.63067 21.4867 7.63067C22.4187 7.628 23.352 7.676 24.28 7.77333V11H22.3667C20.8627 11 20.5693 11.7173 20.5693 12.7667V15.08H24.1653L23.6987 18.7133H20.568V28H26.6667C27.0203 28 27.3594 27.8595 27.6095 27.6095C27.8595 27.3594 28 27.0203 28 26.6667V5.33333C28 4.97971 27.8595 4.64057 27.6095 4.39052C27.3594 4.14048 27.0203 4 26.6667 4Z" fill="#077BC3"/>
</svg>
