<svg width="36" height="36" viewBox="0 0 36 36" fill="none" xmlns="http://www.w3.org/2000/svg">
<path d="M6 34C5.73478 34 5.48043 33.8946 5.29289 33.7071C5.10536 33.5196 5 33.2652 5 33V3C5 2.73478 5.10536 2.48043 5.29289 2.29289C5.48043 2.10536 5.73478 2 6 2C6.26522 2 6.51957 2.10536 6.70711 2.29289C6.89464 2.48043 7 2.73478 7 3V33C7 33.2652 6.89464 33.5196 6.70711 33.7071C6.51957 33.8946 6.26522 34 6 34Z" fill="white"/>
<path d="M30.55 3.82C30.398 3.73223 30.2255 3.68603 30.05 3.68603C29.8745 3.68603 29.702 3.73223 29.55 3.82C27.6114 4.63491 25.5223 5.03024 23.42 4.98C21.6088 4.84748 19.8448 4.34009 18.24 3.49C16.6905 2.66873 14.9885 2.17516 13.24 2.04C11.7867 2.02356 10.3449 2.299 9 2.85V5.08C10.3028 4.36715 11.7649 3.99561 13.25 4C14.7206 4.1459 16.148 4.58089 17.45 5.28C19.3101 6.25133 21.3551 6.81711 23.45 6.94C25.3307 6.94655 27.2016 6.67013 29 6.12V18.95C27.2091 19.5857 25.3202 19.9005 23.42 19.88C21.6088 19.7475 19.8448 19.2401 18.24 18.39C16.6905 17.5687 14.9885 17.0752 13.24 16.94C11.784 16.9362 10.3421 17.2253 9 17.79V20C10.3028 19.2871 11.7649 18.9156 13.25 18.92C14.7206 19.0659 16.148 19.5009 17.45 20.2C19.3101 21.1713 21.3551 21.7371 23.45 21.86C25.8545 21.91 28.2417 21.4427 30.45 20.49C30.6149 20.4069 30.7536 20.2798 30.8507 20.1227C30.9478 19.9656 30.9994 19.7847 31 19.6V4.67C31.0025 4.50192 30.9626 4.33592 30.8839 4.18735C30.8052 4.03878 30.6904 3.91244 30.55 3.82Z" fill="white"/>
</svg>
