	<svg
											width="39"
											height="39"
											viewBox="0 0 39 39"
											fill="none"
											xmlns="http://www.w3.org/2000/svg"
										>
											<path
												d="M38.2693 19.6762C38.2693 24.7511 36.2534 29.618 32.6649 33.2065C29.0765 36.7949 24.2095 38.8109 19.1347 38.8109C14.0598 38.8109 9.19286 36.7949 5.60442 33.2065C2.01597 29.618 0 24.7511 0 19.6762C0 14.6014 2.01597 9.73441 5.60442 6.14597C9.19286 2.55752 14.0598 0.54155 19.1347 0.54155C24.2095 0.54155 29.0765 2.55752 32.6649 6.14597C36.2534 9.73441 38.2693 14.6014 38.2693 19.6762ZM28.7738 12.429C28.6029 12.2587 28.3995 12.1247 28.1756 12.0348C27.9518 11.945 27.7121 11.9012 27.471 11.9061C27.2298 11.911 26.9922 11.9645 26.7722 12.0634C26.5522 12.1623 26.3544 12.3045 26.1906 12.4816L17.8837 23.0654L12.8776 18.0569C12.5376 17.7401 12.0878 17.5676 11.6231 17.5758C11.1583 17.584 10.7149 17.7722 10.3862 18.1009C10.0576 18.4296 9.86931 18.873 9.86111 19.3377C9.85291 19.8025 10.0254 20.2522 10.3423 20.5923L16.6711 26.9235C16.8416 27.0937 17.0446 27.2278 17.268 27.3178C17.4915 27.4078 17.7308 27.4519 17.9716 27.4474C18.2125 27.443 18.45 27.39 18.6699 27.2918C18.8899 27.1936 19.0878 27.052 19.2519 26.8756L28.8001 14.9404C29.1256 14.6019 29.3054 14.1494 29.3009 13.6798C29.2965 13.2102 29.1081 12.7611 28.7762 12.429H28.7738Z"
												fill="#1C8202"
											/>
										</svg>