<svg width="35" height="35" viewBox="0 0 35 35" fill="none" xmlns="http://www.w3.org/2000/svg">
<path d="M5.83331 8.75008C5.83331 8.36331 5.98696 7.99237 6.26045 7.71888C6.53394 7.44539 6.90487 7.29175 7.29165 7.29175H27.7083C28.0951 7.29175 28.466 7.44539 28.7395 7.71888C29.013 7.99237 29.1666 8.36331 29.1666 8.75008C29.1666 9.13686 29.013 9.50779 28.7395 9.78128C28.466 10.0548 28.0951 10.2084 27.7083 10.2084H7.29165C6.90487 10.2084 6.53394 10.0548 6.26045 9.78128C5.98696 9.50779 5.83331 9.13686 5.83331 8.75008Z" fill="#353535"/>
<path d="M5.83331 26.2501C5.83331 25.8633 5.98696 25.4924 6.26045 25.2189C6.53394 24.9454 6.90487 24.7917 7.29165 24.7917H27.7083C28.0951 24.7917 28.466 24.9454 28.7395 25.2189C29.013 25.4924 29.1666 25.8633 29.1666 26.2501C29.1666 26.6369 29.013 27.0078 28.7395 27.2813C28.466 27.5548 28.0951 27.7084 27.7083 27.7084H7.29165C6.90487 27.7084 6.53394 27.5548 6.26045 27.2813C5.98696 27.0078 5.83331 26.6369 5.83331 26.2501Z" fill="#353535"/>
<path d="M7.29165 16.0417C6.90487 16.0417 6.53394 16.1954 6.26045 16.4689C5.98696 16.7424 5.83331 17.1133 5.83331 17.5001C5.83331 17.8869 5.98696 18.2578 6.26045 18.5313C6.53394 18.8048 6.90487 18.9584 7.29165 18.9584H18.9583C19.3451 18.9584 19.716 18.8048 19.9895 18.5313C20.263 18.2578 20.4166 17.8869 20.4166 17.5001C20.4166 17.1133 20.263 16.7424 19.9895 16.4689C19.716 16.1954 19.3451 16.0417 18.9583 16.0417H7.29165Z" fill="#353535"/>
</svg>
