<svg width="30" height="29" viewBox="0 0 30 29" fill="none" xmlns="http://www.w3.org/2000/svg">
<path fill-rule="evenodd" clip-rule="evenodd" d="M14.9999 5.15253L13.6556 3.77066C10.4999 0.526905 4.71368 1.64628 2.62493 5.72441C1.6443 7.64253 1.42305 10.4119 3.21368 13.9463C4.93868 17.3494 8.52743 21.4257 14.9999 25.8657C21.4724 21.4257 25.0593 17.3494 26.7862 13.9463C28.5768 10.41 28.3574 7.64253 27.3749 5.72441C25.2862 1.64628 19.4999 0.52503 16.3443 3.76878L14.9999 5.15253ZM14.9999 28.125C-13.7495 9.12753 6.14805 -5.69997 14.6699 2.14316C14.7824 2.24628 14.8931 2.35316 14.9999 2.46378C15.1057 2.35326 15.2158 2.24692 15.3299 2.14503C23.8499 -5.70372 43.7493 9.12566 14.9999 28.125Z" fill="#FF0000"/>
</svg>
