<svg width="58" height="54" viewBox="0 0 58 54" fill="none" xmlns="http://www.w3.org/2000/svg">
<path d="M11.0252 52.7393C10.6184 53.1035 10.1191 53.3407 9.58594 53.4229C9.05279 53.5052 8.50792 53.4291 8.01529 53.2037C7.52266 52.9783 7.10271 52.6129 6.80476 52.1503C6.5068 51.6877 6.3432 51.1473 6.33317 50.5923V44.0493C4.83028 44.0493 3.38894 43.4346 2.32623 42.3405C1.26353 41.2464 0.666504 39.7624 0.666504 38.2151V17.7954C0.666504 16.248 1.26353 14.7641 2.32623 13.67C3.38894 12.5758 4.83028 11.9612 6.33317 11.9612H37.4998C39.0027 11.9612 40.4441 12.5758 41.5068 13.67C42.5695 14.7641 43.1665 16.248 43.1665 17.7954V38.2151C43.1665 39.7624 42.5695 41.2464 41.5068 42.3405C40.4441 43.4346 39.0027 44.0493 37.4998 44.0493H23.3417L11.0252 52.7393ZM45.9998 29.5134C45.9908 29.8721 45.9908 30.231 45.9998 30.5898V29.5104C46.014 29.1983 46.0168 25.2894 46.0112 17.7866C46.0089 15.4671 45.1124 13.2435 43.5186 11.6042C41.9248 9.96487 39.764 9.04406 37.5112 9.04406H14.8332V6.12696C14.8332 4.57963 15.4302 3.09568 16.4929 2.00155C17.5556 0.907428 18.9969 0.292755 20.4998 0.292755H51.6665C53.1694 0.292755 54.6107 0.907428 55.6734 2.00155C56.7361 3.09568 57.3332 4.57963 57.3332 6.12696V26.5467C57.3332 28.094 56.7361 29.5779 55.6734 30.6721C54.6107 31.7662 53.1694 32.3809 51.6665 32.3809V38.9239C51.6565 39.4789 51.4929 40.0193 51.1949 40.4819C50.897 40.9445 50.477 41.3099 49.9844 41.5353C49.4918 41.7607 48.9469 41.8368 48.4137 41.7545C47.8806 41.6723 47.3813 41.4351 46.9745 41.0709L45.9998 40.3825V29.5134Z" fill="white"/>
<path d="M11.0252 52.7393C10.6184 53.1035 10.1191 53.3407 9.58594 53.4229C9.05279 53.5052 8.50792 53.4291 8.01529 53.2037C7.52266 52.9783 7.10271 52.6129 6.80476 52.1503C6.5068 51.6877 6.3432 51.1473 6.33317 50.5923V44.0493C4.83028 44.0493 3.38894 43.4346 2.32623 42.3405C1.26353 41.2464 0.666504 39.7624 0.666504 38.2151V17.7954C0.666504 16.248 1.26353 14.7641 2.32623 13.67C3.38894 12.5758 4.83028 11.9612 6.33317 11.9612H37.4998C39.0027 11.9612 40.4441 12.5758 41.5068 13.67C42.5695 14.7641 43.1665 16.248 43.1665 17.7954V38.2151C43.1665 39.7624 42.5695 41.2464 41.5068 42.3405C40.4441 43.4346 39.0027 44.0493 37.4998 44.0493H23.3417L11.0252 52.7393ZM45.9998 29.5134C45.9908 29.8721 45.9908 30.231 45.9998 30.5898V29.5104C46.014 29.1983 46.0168 25.2894 46.0112 17.7866C46.0089 15.4671 45.1124 13.2435 43.5186 11.6042C41.9248 9.96487 39.764 9.04406 37.5112 9.04406H14.8332V6.12696C14.8332 4.57963 15.4302 3.09568 16.4929 2.00155C17.5556 0.907428 18.9969 0.292755 20.4998 0.292755H51.6665C53.1694 0.292755 54.6107 0.907428 55.6734 2.00155C56.7361 3.09568 57.3332 4.57963 57.3332 6.12696V26.5467C57.3332 28.094 56.7361 29.5779 55.6734 30.6721C54.6107 31.7662 53.1694 32.3809 51.6665 32.3809V38.9239C51.6565 39.4789 51.4929 40.0193 51.1949 40.4819C50.897 40.9445 50.477 41.3099 49.9844 41.5353C49.4918 41.7607 48.9469 41.8368 48.4137 41.7545C47.8806 41.6723 47.3813 41.4351 46.9745 41.0709L45.9998 40.3825V29.5134Z" fill="url(#paint0_linear)"/>
<defs>
<linearGradient id="paint0_linear" x1="0.666504" y1="26.7333" x2="56.2204" y2="26.7333" gradientUnits="userSpaceOnUse">
<stop stop-color="#4DBCEF"/>
<stop offset="1" stop-color="#1B8ACC"/>
</linearGradient>
</defs>
</svg>
