<svg width="51" height="50" viewBox="0 0 51 50" fill="none" xmlns="http://www.w3.org/2000/svg">
<path d="M1.31104 6.6001C1.31104 3.56253 3.77347 1.1001 6.81104 1.1001H44.1083C47.1459 1.1001 49.6083 3.56253 49.6083 6.6001V44.0001C49.6083 47.0377 47.1459 49.5001 44.1083 49.5001H6.81104C3.77347 49.5001 1.31104 47.0377 1.31104 44.0001V6.6001Z" fill="#C4C4C4"/>
<path d="M1.31104 6.6001C1.31104 3.56253 3.77347 1.1001 6.81104 1.1001H44.1083C47.1459 1.1001 49.6083 3.56253 49.6083 6.6001V44.0001C49.6083 47.0377 47.1459 49.5001 44.1083 49.5001H6.81104C3.77347 49.5001 1.31104 47.0377 1.31104 44.0001V6.6001Z" fill="url(#paint0_linear)"/>
<path d="M1.31104 6.6001C1.31104 3.56253 3.77347 1.1001 6.81104 1.1001H44.1083C47.1459 1.1001 49.6083 3.56253 49.6083 6.6001V44.0001C49.6083 47.0377 47.1459 49.5001 44.1083 49.5001H6.81104C3.77347 49.5001 1.31104 47.0377 1.31104 44.0001V6.6001Z" stroke="#C4C4C4"/>
<path d="M1.31104 6.6001C1.31104 3.56253 3.77347 1.1001 6.81104 1.1001H44.1083C47.1459 1.1001 49.6083 3.56253 49.6083 6.6001V44.0001C49.6083 47.0377 47.1459 49.5001 44.1083 49.5001H6.81104C3.77347 49.5001 1.31104 47.0377 1.31104 44.0001V6.6001Z" stroke="url(#paint1_linear)"/>
<path fill-rule="evenodd" clip-rule="evenodd" d="M24.5811 10.75C20.8468 10.75 20.3793 10.766 18.9126 10.8325C13.9191 11.0617 11.1439 13.8323 10.9147 18.8304C10.8471 20.2982 10.8311 20.7657 10.8311 24.5C10.8311 28.2343 10.8471 28.7029 10.9136 30.1696C11.1427 35.1631 13.9133 37.9383 18.9115 38.1675C20.3793 38.234 20.8468 38.25 24.5811 38.25C28.3153 38.25 28.784 38.234 30.2506 38.1675C35.2396 37.9383 38.0217 35.1677 38.2474 30.1696C38.315 28.7029 38.3311 28.2343 38.3311 24.5C38.3311 20.7657 38.315 20.2982 38.2486 18.8316C38.024 13.8426 35.2499 11.0628 30.2518 10.8336C28.784 10.766 28.3153 10.75 24.5811 10.75ZM24.581 17.4393C20.6817 17.4393 17.5204 20.6006 17.5204 24.4999C17.5204 28.3992 20.6817 31.5617 24.581 31.5617C28.4803 31.5617 31.6416 28.4003 31.6416 24.4999C31.6416 20.6006 28.4803 17.4393 24.581 17.4393ZM24.581 29.0834C22.0499 29.0834 19.9977 27.0323 19.9977 24.5C19.9977 21.9689 22.0499 19.9167 24.581 19.9167C27.1122 19.9167 29.1644 21.9689 29.1644 24.5C29.1644 27.0323 27.1122 29.0834 24.581 29.0834ZM31.9212 15.511C31.0091 15.511 30.27 16.2501 30.27 17.161C30.27 18.0719 31.0091 18.811 31.9212 18.811C32.8321 18.811 33.57 18.0719 33.57 17.161C33.57 16.2501 32.8321 15.511 31.9212 15.511Z" fill="white"/>
<defs>
<linearGradient id="paint0_linear" x1="50.1083" y1="24.7512" x2="0.811035" y2="24.7512" gradientUnits="userSpaceOnUse">
<stop stop-color="#067AC2"/>
<stop offset="1" stop-color="#209EDB"/>
</linearGradient>
<linearGradient id="paint1_linear" x1="50.1083" y1="24.7512" x2="0.811035" y2="24.7512" gradientUnits="userSpaceOnUse">
<stop stop-color="#067AC2"/>
<stop offset="1" stop-color="#209EDB"/>
</linearGradient>
</defs>
</svg>
