<svg width="205" height="37" viewBox="0 0 205 37" fill="none" xmlns="http://www.w3.org/2000/svg">
<path fill-rule="evenodd" clip-rule="evenodd" d="M27.114 9.25C27.2705 9.25 27.4206 9.3356 27.5312 9.48798C27.6419 9.64035 27.7041 9.84701 27.7041 10.0625V27.9375C27.7041 28.153 27.6419 28.3597 27.5312 28.512C27.4206 28.6644 27.2705 28.75 27.114 28.75C26.9575 28.75 26.8074 28.6644 26.6968 28.512C26.5861 28.3597 26.524 28.153 26.524 27.9375V10.0625C26.524 9.84701 26.5861 9.64035 26.6968 9.48798C26.8074 9.3356 26.9575 9.25 27.114 9.25ZM24.7538 12.5C24.9103 12.5 25.0604 12.5856 25.171 12.738C25.2817 12.8903 25.3439 13.097 25.3439 13.3125V24.6875C25.3439 24.903 25.2817 25.1097 25.171 25.262C25.0604 25.4144 24.9103 25.5 24.7538 25.5C24.5973 25.5 24.4472 25.4144 24.3366 25.262C24.2259 25.1097 24.1638 24.903 24.1638 24.6875V13.3125C24.1638 13.097 24.2259 12.8903 24.3366 12.738C24.4472 12.5856 24.5973 12.5 24.7538 12.5ZM29.4742 12.5C29.6307 12.5 29.7808 12.5856 29.8914 12.738C30.0021 12.8903 30.0642 13.097 30.0642 13.3125V24.6875C30.0642 24.903 30.0021 25.1097 29.8914 25.262C29.7808 25.4144 29.6307 25.5 29.4742 25.5C29.3177 25.5 29.1676 25.4144 29.057 25.262C28.9463 25.1097 28.8842 24.903 28.8842 24.6875V13.3125C28.8842 13.097 28.9463 12.8903 29.057 12.738C29.1676 12.5856 29.3177 12.5 29.4742 12.5ZM22.3936 14.9375C22.5501 14.9375 22.7002 15.0231 22.8108 15.1755C22.9215 15.3278 22.9837 15.5345 22.9837 15.75V22.25C22.9837 22.4655 22.9215 22.6722 22.8108 22.8245C22.7002 22.9769 22.5501 23.0625 22.3936 23.0625C22.2371 23.0625 22.087 22.9769 21.9764 22.8245C21.8657 22.6722 21.8036 22.4655 21.8036 22.25V15.75C21.8036 15.5345 21.8657 15.3278 21.9764 15.1755C22.087 15.0231 22.2371 14.9375 22.3936 14.9375ZM31.8344 14.9375C31.9909 14.9375 32.141 15.0231 32.2516 15.1755C32.3623 15.3278 32.4244 15.5345 32.4244 15.75V22.25C32.4244 22.4655 32.3623 22.6722 32.2516 22.8245C32.141 22.9769 31.9909 23.0625 31.8344 23.0625C31.6779 23.0625 31.5278 22.9769 31.4172 22.8245C31.3065 22.6722 31.2443 22.4655 31.2443 22.25V15.75C31.2443 15.5345 31.3065 15.3278 31.4172 15.1755C31.5278 15.0231 31.6779 14.9375 31.8344 14.9375ZM20.0334 16.5625C20.1899 16.5625 20.34 16.6481 20.4506 16.8005C20.5613 16.9528 20.6235 17.1595 20.6235 17.375V20.625C20.6235 20.8405 20.5613 21.0472 20.4506 21.1995C20.34 21.3519 20.1899 21.4375 20.0334 21.4375C19.8769 21.4375 19.7268 21.3519 19.6162 21.1995C19.5055 21.0472 19.4434 20.8405 19.4434 20.625V17.375C19.4434 17.1595 19.5055 16.9528 19.6162 16.8005C19.7268 16.6481 19.8769 16.5625 20.0334 16.5625ZM34.1946 16.5625C34.3511 16.5625 34.5012 16.6481 34.6118 16.8005C34.7225 16.9528 34.7846 17.1595 34.7846 17.375V20.625C34.7846 20.8405 34.7225 21.0472 34.6118 21.1995C34.5012 21.3519 34.3511 21.4375 34.1946 21.4375C34.0381 21.4375 33.888 21.3519 33.7774 21.1995C33.6667 21.0472 33.6045 20.8405 33.6045 20.625V17.375C33.6045 17.1595 33.6667 16.9528 33.7774 16.8005C33.888 16.6481 34.0381 16.5625 34.1946 16.5625Z" fill="#067AC2"/>
<path fill-rule="evenodd" clip-rule="evenodd" d="M94.5476 13.75C94.7041 13.75 94.8542 13.7961 94.9648 13.8781C95.0755 13.9602 95.1376 14.0715 95.1376 14.1875V23.8125C95.1376 23.9285 95.0755 24.0398 94.9648 24.1219C94.8542 24.2039 94.7041 24.25 94.5476 24.25C94.3911 24.25 94.241 24.2039 94.1304 24.1219C94.0197 24.0398 93.9575 23.9285 93.9575 23.8125V14.1875C93.9575 14.0715 94.0197 13.9602 94.1304 13.8781C94.241 13.7961 94.3911 13.75 94.5476 13.75ZM92.1874 15.5C92.3439 15.5 92.494 15.5461 92.6046 15.6281C92.7153 15.7102 92.7774 15.8215 92.7774 15.9375V22.0625C92.7774 22.1785 92.7153 22.2898 92.6046 22.3719C92.494 22.4539 92.3439 22.5 92.1874 22.5C92.0309 22.5 91.8808 22.4539 91.7702 22.3719C91.6595 22.2898 91.5973 22.1785 91.5973 22.0625V15.9375C91.5973 15.8215 91.6595 15.7102 91.7702 15.6281C91.8808 15.5461 92.0309 15.5 92.1874 15.5ZM96.9078 15.5C97.0643 15.5 97.2144 15.5461 97.325 15.6281C97.4357 15.7102 97.4978 15.8215 97.4978 15.9375V22.0625C97.4978 22.1785 97.4357 22.2898 97.325 22.3719C97.2144 22.4539 97.0643 22.5 96.9078 22.5C96.7513 22.5 96.6012 22.4539 96.4906 22.3719C96.3799 22.2898 96.3177 22.1785 96.3177 22.0625V15.9375C96.3177 15.8215 96.3799 15.7102 96.4906 15.6281C96.6012 15.5461 96.7513 15.5 96.9078 15.5ZM89.8272 16.8125C89.9837 16.8125 90.1338 16.8586 90.2444 16.9406C90.3551 17.0227 90.4172 17.134 90.4172 17.25V20.75C90.4172 20.866 90.3551 20.9773 90.2444 21.0594C90.1338 21.1414 89.9837 21.1875 89.8272 21.1875C89.6707 21.1875 89.5206 21.1414 89.41 21.0594C89.2993 20.9773 89.2372 20.866 89.2372 20.75V17.25C89.2372 17.134 89.2993 17.0227 89.41 16.9406C89.5206 16.8586 89.6707 16.8125 89.8272 16.8125ZM99.268 16.8125C99.4245 16.8125 99.5746 16.8586 99.6852 16.9406C99.7959 17.0227 99.858 17.134 99.858 17.25V20.75C99.858 20.866 99.7959 20.9773 99.6852 21.0594C99.5746 21.1414 99.4245 21.1875 99.268 21.1875C99.1115 21.1875 98.9614 21.1414 98.8508 21.0594C98.7401 20.9773 98.6779 20.866 98.6779 20.75V17.25C98.6779 17.134 98.7401 17.0227 98.8508 16.9406C98.9614 16.8586 99.1115 16.8125 99.268 16.8125ZM87.467 17.6875C87.6235 17.6875 87.7736 17.7336 87.8842 17.8156C87.9949 17.8977 88.0571 18.009 88.0571 18.125V19.875C88.0571 19.991 87.9949 20.1023 87.8842 20.1844C87.7736 20.2664 87.6235 20.3125 87.467 20.3125C87.3105 20.3125 87.1604 20.2664 87.0498 20.1844C86.9391 20.1023 86.877 19.991 86.877 19.875V18.125C86.877 18.009 86.9391 17.8977 87.0498 17.8156C87.1604 17.7336 87.3105 17.6875 87.467 17.6875ZM101.628 17.6875C101.785 17.6875 101.935 17.7336 102.045 17.8156C102.156 17.8977 102.218 18.009 102.218 18.125V19.875C102.218 19.991 102.156 20.1023 102.045 20.1844C101.935 20.2664 101.785 20.3125 101.628 20.3125C101.472 20.3125 101.322 20.2664 101.211 20.1844C101.1 20.1023 101.038 19.991 101.038 19.875V18.125C101.038 18.009 101.1 17.8977 101.211 17.8156C101.322 17.7336 101.472 17.6875 101.628 17.6875Z" fill="#067AC2"/>
<path fill-rule="evenodd" clip-rule="evenodd" d="M161.981 10C162.138 10 162.288 10.079 162.398 10.2197C162.509 10.3603 162.571 10.5511 162.571 10.75V27.25C162.571 27.4489 162.509 27.6397 162.398 27.7803C162.288 27.921 162.138 28 161.981 28C161.825 28 161.675 27.921 161.564 27.7803C161.453 27.6397 161.391 27.4489 161.391 27.25V10.75C161.391 10.5511 161.453 10.3603 161.564 10.2197C161.675 10.079 161.825 10 161.981 10ZM159.621 13C159.777 13 159.928 13.079 160.038 13.2197C160.149 13.3603 160.211 13.5511 160.211 13.75V24.25C160.211 24.4489 160.149 24.6397 160.038 24.7803C159.928 24.921 159.777 25 159.621 25C159.465 25 159.314 24.921 159.204 24.7803C159.093 24.6397 159.031 24.4489 159.031 24.25V13.75C159.031 13.5511 159.093 13.3603 159.204 13.2197C159.314 13.079 159.465 13 159.621 13ZM164.341 13C164.498 13 164.648 13.079 164.759 13.2197C164.869 13.3603 164.931 13.5511 164.931 13.75V24.25C164.931 24.4489 164.869 24.6397 164.759 24.7803C164.648 24.921 164.498 25 164.341 25C164.185 25 164.035 24.921 163.924 24.7803C163.814 24.6397 163.751 24.4489 163.751 24.25V13.75C163.751 13.5511 163.814 13.3603 163.924 13.2197C164.035 13.079 164.185 13 164.341 13ZM157.261 15.25C157.417 15.25 157.567 15.329 157.678 15.4697C157.789 15.6103 157.851 15.8011 157.851 16V22C157.851 22.1989 157.789 22.3897 157.678 22.5303C157.567 22.671 157.417 22.75 157.261 22.75C157.104 22.75 156.954 22.671 156.844 22.5303C156.733 22.3897 156.671 22.1989 156.671 22V16C156.671 15.8011 156.733 15.6103 156.844 15.4697C156.954 15.329 157.104 15.25 157.261 15.25ZM166.702 15.25C166.858 15.25 167.008 15.329 167.119 15.4697C167.229 15.6103 167.292 15.8011 167.292 16V22C167.292 22.1989 167.229 22.3897 167.119 22.5303C167.008 22.671 166.858 22.75 166.702 22.75C166.545 22.75 166.395 22.671 166.284 22.5303C166.174 22.3897 166.112 22.1989 166.112 22V16C166.112 15.8011 166.174 15.6103 166.284 15.4697C166.395 15.329 166.545 15.25 166.702 15.25ZM154.901 16.75C155.057 16.75 155.207 16.829 155.318 16.9697C155.428 17.1103 155.491 17.3011 155.491 17.5V20.5C155.491 20.6989 155.428 20.8897 155.318 21.0303C155.207 21.171 155.057 21.25 154.901 21.25C154.744 21.25 154.594 21.171 154.483 21.0303C154.373 20.8897 154.311 20.6989 154.311 20.5V17.5C154.311 17.3011 154.373 17.1103 154.483 16.9697C154.594 16.829 154.744 16.75 154.901 16.75ZM169.062 16.75C169.218 16.75 169.368 16.829 169.479 16.9697C169.59 17.1103 169.652 17.3011 169.652 17.5V20.5C169.652 20.6989 169.59 20.8897 169.479 21.0303C169.368 21.171 169.218 21.25 169.062 21.25C168.905 21.25 168.755 21.171 168.645 21.0303C168.534 20.8897 168.472 20.6989 168.472 20.5V17.5C168.472 17.3011 168.534 17.1103 168.645 16.9697C168.755 16.829 168.905 16.75 169.062 16.75Z" fill="#067AC2"/>
<path fill-rule="evenodd" clip-rule="evenodd" d="M41.4988 9.25C41.6553 9.25 41.8053 9.3356 41.916 9.48798C42.0267 9.64035 42.0888 9.84701 42.0888 10.0625V27.9375C42.0888 28.153 42.0267 28.3597 41.916 28.512C41.8053 28.6644 41.6553 28.75 41.4988 28.75C41.3423 28.75 41.1922 28.6644 41.0815 28.512C40.9709 28.3597 40.9087 28.153 40.9087 27.9375V10.0625C40.9087 9.84701 40.9709 9.64035 41.0815 9.48798C41.1922 9.3356 41.3423 9.25 41.4988 9.25ZM39.1386 12.5C39.2951 12.5 39.4451 12.5856 39.5558 12.738C39.6665 12.8903 39.7286 13.097 39.7286 13.3125V24.6875C39.7286 24.903 39.6665 25.1097 39.5558 25.262C39.4451 25.4144 39.2951 25.5 39.1386 25.5C38.9821 25.5 38.832 25.4144 38.7213 25.262C38.6107 25.1097 38.5485 24.903 38.5485 24.6875V13.3125C38.5485 13.097 38.6107 12.8903 38.7213 12.738C38.832 12.5856 38.9821 12.5 39.1386 12.5ZM43.859 12.5C44.0155 12.5 44.1655 12.5856 44.2762 12.738C44.3868 12.8903 44.449 13.097 44.449 13.3125V24.6875C44.449 24.903 44.3868 25.1097 44.2762 25.262C44.1655 25.4144 44.0155 25.5 43.859 25.5C43.7025 25.5 43.5524 25.4144 43.4417 25.262C43.3311 25.1097 43.2689 24.903 43.2689 24.6875V13.3125C43.2689 13.097 43.3311 12.8903 43.4417 12.738C43.5524 12.5856 43.7025 12.5 43.859 12.5ZM36.7784 14.9375C36.9349 14.9375 37.0849 15.0231 37.1956 15.1755C37.3063 15.3278 37.3684 15.5345 37.3684 15.75V22.25C37.3684 22.4655 37.3063 22.6722 37.1956 22.8245C37.0849 22.9769 36.9349 23.0625 36.7784 23.0625C36.6219 23.0625 36.4718 22.9769 36.3611 22.8245C36.2505 22.6722 36.1883 22.4655 36.1883 22.25V15.75C36.1883 15.5345 36.2505 15.3278 36.3611 15.1755C36.4718 15.0231 36.6219 14.9375 36.7784 14.9375ZM46.2192 14.9375C46.3757 14.9375 46.5257 15.0231 46.6364 15.1755C46.747 15.3278 46.8092 15.5345 46.8092 15.75V22.25C46.8092 22.4655 46.747 22.6722 46.6364 22.8245C46.5257 22.9769 46.3757 23.0625 46.2192 23.0625C46.0627 23.0625 45.9126 22.9769 45.8019 22.8245C45.6913 22.6722 45.6291 22.4655 45.6291 22.25V15.75C45.6291 15.5345 45.6913 15.3278 45.8019 15.1755C45.9126 15.0231 46.0627 14.9375 46.2192 14.9375ZM34.4182 16.5625C34.5747 16.5625 34.7247 16.6481 34.8354 16.8005C34.9461 16.9528 35.0082 17.1595 35.0082 17.375V20.625C35.0082 20.8405 34.9461 21.0472 34.8354 21.1995C34.7247 21.3519 34.5747 21.4375 34.4182 21.4375C34.2617 21.4375 34.1116 21.3519 34.0009 21.1995C33.8903 21.0472 33.8281 20.8405 33.8281 20.625V17.375C33.8281 17.1595 33.8903 16.9528 34.0009 16.8005C34.1116 16.6481 34.2617 16.5625 34.4182 16.5625ZM48.5794 16.5625C48.7359 16.5625 48.8859 16.6481 48.9966 16.8005C49.1072 16.9528 49.1694 17.1595 49.1694 17.375V20.625C49.1694 20.8405 49.1072 21.0472 48.9966 21.1995C48.8859 21.3519 48.7359 21.4375 48.5794 21.4375C48.4229 21.4375 48.2728 21.3519 48.1621 21.1995C48.0515 21.0472 47.9893 20.8405 47.9893 20.625V17.375C47.9893 17.1595 48.0515 16.9528 48.1621 16.8005C48.2728 16.6481 48.4229 16.5625 48.5794 16.5625Z" fill="#067AC2"/>
<path fill-rule="evenodd" clip-rule="evenodd" d="M108.934 13.75C109.091 13.75 109.241 13.7961 109.352 13.8781C109.462 13.9602 109.524 14.0715 109.524 14.1875V23.8125C109.524 23.9285 109.462 24.0398 109.352 24.1219C109.241 24.2039 109.091 24.25 108.934 24.25C108.778 24.25 108.628 24.2039 108.517 24.1219C108.406 24.0398 108.344 23.9285 108.344 23.8125V14.1875C108.344 14.0715 108.406 13.9602 108.517 13.8781C108.628 13.7961 108.778 13.75 108.934 13.75ZM106.574 15.5C106.731 15.5 106.881 15.5461 106.991 15.6281C107.102 15.7102 107.164 15.8215 107.164 15.9375V22.0625C107.164 22.1785 107.102 22.2898 106.991 22.3719C106.881 22.4539 106.731 22.5 106.574 22.5C106.418 22.5 106.268 22.4539 106.157 22.3719C106.046 22.2898 105.984 22.1785 105.984 22.0625V15.9375C105.984 15.8215 106.046 15.7102 106.157 15.6281C106.268 15.5461 106.418 15.5 106.574 15.5ZM111.295 15.5C111.451 15.5 111.601 15.5461 111.712 15.6281C111.822 15.7102 111.885 15.8215 111.885 15.9375V22.0625C111.885 22.1785 111.822 22.2898 111.712 22.3719C111.601 22.4539 111.451 22.5 111.295 22.5C111.138 22.5 110.988 22.4539 110.877 22.3719C110.767 22.2898 110.704 22.1785 110.704 22.0625V15.9375C110.704 15.8215 110.767 15.7102 110.877 15.6281C110.988 15.5461 111.138 15.5 111.295 15.5ZM104.214 16.8125C104.37 16.8125 104.52 16.8586 104.631 16.9406C104.742 17.0227 104.804 17.134 104.804 17.25V20.75C104.804 20.866 104.742 20.9773 104.631 21.0594C104.52 21.1414 104.37 21.1875 104.214 21.1875C104.057 21.1875 103.907 21.1414 103.797 21.0594C103.686 20.9773 103.624 20.866 103.624 20.75V17.25C103.624 17.134 103.686 17.0227 103.797 16.9406C103.907 16.8586 104.057 16.8125 104.214 16.8125ZM113.655 16.8125C113.811 16.8125 113.961 16.8586 114.072 16.9406C114.183 17.0227 114.245 17.134 114.245 17.25V20.75C114.245 20.866 114.183 20.9773 114.072 21.0594C113.961 21.1414 113.811 21.1875 113.655 21.1875C113.498 21.1875 113.348 21.1414 113.237 21.0594C113.127 20.9773 113.065 20.866 113.065 20.75V17.25C113.065 17.134 113.127 17.0227 113.237 16.9406C113.348 16.8586 113.498 16.8125 113.655 16.8125ZM101.854 17.6875C102.01 17.6875 102.16 17.7336 102.271 17.8156C102.382 17.8977 102.444 18.009 102.444 18.125V19.875C102.444 19.991 102.382 20.1023 102.271 20.1844C102.16 20.2664 102.01 20.3125 101.854 20.3125C101.697 20.3125 101.547 20.2664 101.436 20.1844C101.326 20.1023 101.264 19.991 101.264 19.875V18.125C101.264 18.009 101.326 17.8977 101.436 17.8156C101.547 17.7336 101.697 17.6875 101.854 17.6875ZM116.015 17.6875C116.171 17.6875 116.321 17.7336 116.432 17.8156C116.543 17.8977 116.605 18.009 116.605 18.125V19.875C116.605 19.991 116.543 20.1023 116.432 20.1844C116.321 20.2664 116.171 20.3125 116.015 20.3125C115.858 20.3125 115.708 20.2664 115.598 20.1844C115.487 20.1023 115.425 19.991 115.425 19.875V18.125C115.425 18.009 115.487 17.8977 115.598 17.8156C115.708 17.7336 115.858 17.6875 116.015 17.6875Z" fill="#067AC2"/>
<path fill-rule="evenodd" clip-rule="evenodd" d="M176.368 10C176.524 10 176.674 10.079 176.785 10.2197C176.896 10.3603 176.958 10.5511 176.958 10.75V27.25C176.958 27.4489 176.896 27.6397 176.785 27.7803C176.674 27.921 176.524 28 176.368 28C176.211 28 176.061 27.921 175.951 27.7803C175.84 27.6397 175.778 27.4489 175.778 27.25V10.75C175.778 10.5511 175.84 10.3603 175.951 10.2197C176.061 10.079 176.211 10 176.368 10ZM174.008 13C174.164 13 174.314 13.079 174.425 13.2197C174.536 13.3603 174.598 13.5511 174.598 13.75V24.25C174.598 24.4489 174.536 24.6397 174.425 24.7803C174.314 24.921 174.164 25 174.008 25C173.851 25 173.701 24.921 173.59 24.7803C173.48 24.6397 173.418 24.4489 173.418 24.25V13.75C173.418 13.5511 173.48 13.3603 173.59 13.2197C173.701 13.079 173.851 13 174.008 13ZM178.728 13C178.885 13 179.035 13.079 179.145 13.2197C179.256 13.3603 179.318 13.5511 179.318 13.75V24.25C179.318 24.4489 179.256 24.6397 179.145 24.7803C179.035 24.921 178.885 25 178.728 25C178.572 25 178.422 24.921 178.311 24.7803C178.2 24.6397 178.138 24.4489 178.138 24.25V13.75C178.138 13.5511 178.2 13.3603 178.311 13.2197C178.422 13.079 178.572 13 178.728 13ZM171.648 15.25C171.804 15.25 171.954 15.329 172.065 15.4697C172.175 15.6103 172.238 15.8011 172.238 16V22C172.238 22.1989 172.175 22.3897 172.065 22.5303C171.954 22.671 171.804 22.75 171.648 22.75C171.491 22.75 171.341 22.671 171.23 22.5303C171.12 22.3897 171.057 22.1989 171.057 22V16C171.057 15.8011 171.12 15.6103 171.23 15.4697C171.341 15.329 171.491 15.25 171.648 15.25ZM181.088 15.25C181.245 15.25 181.395 15.329 181.506 15.4697C181.616 15.6103 181.678 15.8011 181.678 16V22C181.678 22.1989 181.616 22.3897 181.506 22.5303C181.395 22.671 181.245 22.75 181.088 22.75C180.932 22.75 180.782 22.671 180.671 22.5303C180.56 22.3897 180.498 22.1989 180.498 22V16C180.498 15.8011 180.56 15.6103 180.671 15.4697C180.782 15.329 180.932 15.25 181.088 15.25ZM169.287 16.75C169.444 16.75 169.594 16.829 169.705 16.9697C169.815 17.1103 169.877 17.3011 169.877 17.5V20.5C169.877 20.6989 169.815 20.8897 169.705 21.0303C169.594 21.171 169.444 21.25 169.287 21.25C169.131 21.25 168.981 21.171 168.87 21.0303C168.759 20.8897 168.697 20.6989 168.697 20.5V17.5C168.697 17.3011 168.759 17.1103 168.87 16.9697C168.981 16.829 169.131 16.75 169.287 16.75ZM183.449 16.75C183.605 16.75 183.755 16.829 183.866 16.9697C183.976 17.1103 184.039 17.3011 184.039 17.5V20.5C184.039 20.6989 183.976 20.8897 183.866 21.0303C183.755 21.171 183.605 21.25 183.449 21.25C183.292 21.25 183.142 21.171 183.031 21.0303C182.921 20.8897 182.858 20.6989 182.858 20.5V17.5C182.858 17.3011 182.921 17.1103 183.031 16.9697C183.142 16.829 183.292 16.75 183.449 16.75Z" fill="#067AC2"/>
<path fill-rule="evenodd" clip-rule="evenodd" d="M10.03 4.625C10.1865 4.625 10.3366 4.74682 10.4472 4.96366C10.5579 5.1805 10.6201 5.47459 10.6201 5.78125V31.2188C10.6201 31.5254 10.5579 31.8195 10.4472 32.0363C10.3366 32.2532 10.1865 32.375 10.03 32.375C9.87353 32.375 9.72344 32.2532 9.61279 32.0363C9.50213 31.8195 9.43997 31.5254 9.43997 31.2188V5.78125C9.43997 5.47459 9.50213 5.1805 9.61279 4.96366C9.72344 4.74682 9.87353 4.625 10.03 4.625ZM7.66982 9.25C7.82631 9.25 7.97639 9.37182 8.08705 9.58866C8.1977 9.8055 8.25987 10.0996 8.25987 10.4062V26.5938C8.25987 26.9004 8.1977 27.1945 8.08705 27.4113C7.97639 27.6282 7.82631 27.75 7.66982 27.75C7.51333 27.75 7.36325 27.6282 7.25259 27.4113C7.14194 27.1945 7.07977 26.9004 7.07977 26.5938V10.4062C7.07977 10.0996 7.14194 9.8055 7.25259 9.58866C7.36325 9.37182 7.51333 9.25 7.66982 9.25ZM12.3902 9.25C12.5467 9.25 12.6968 9.37182 12.8074 9.58866C12.9181 9.8055 12.9803 10.0996 12.9803 10.4062V26.5938C12.9803 26.9004 12.9181 27.1945 12.8074 27.4113C12.6968 27.6282 12.5467 27.75 12.3902 27.75C12.2337 27.75 12.0836 27.6282 11.973 27.4113C11.8623 27.1945 11.8002 26.9004 11.8002 26.5938V10.4062C11.8002 10.0996 11.8623 9.8055 11.973 9.58866C12.0836 9.37182 12.2337 9.25 12.3902 9.25ZM5.30962 12.7188C5.46611 12.7188 5.61619 12.8406 5.72685 13.0574C5.83751 13.2742 5.89967 13.5683 5.89967 13.875V23.125C5.89967 23.4317 5.83751 23.7258 5.72685 23.9426C5.61619 24.1594 5.46611 24.2812 5.30962 24.2812C5.15313 24.2812 5.00305 24.1594 4.89239 23.9426C4.78174 23.7258 4.71957 23.4317 4.71957 23.125V13.875C4.71957 13.5683 4.78174 13.2742 4.89239 13.0574C5.00305 12.8406 5.15313 12.7188 5.30962 12.7188ZM14.7504 12.7188C14.9069 12.7188 15.057 12.8406 15.1676 13.0574C15.2783 13.2742 15.3405 13.5683 15.3405 13.875V23.125C15.3405 23.4317 15.2783 23.7258 15.1676 23.9426C15.057 24.1594 14.9069 24.2812 14.7504 24.2812C14.5939 24.2812 14.4438 24.1594 14.3332 23.9426C14.2225 23.7258 14.1604 23.4317 14.1604 23.125V13.875C14.1604 13.5683 14.2225 13.2742 14.3332 13.0574C14.4438 12.8406 14.5939 12.7188 14.7504 12.7188ZM2.94942 15.0312C3.10592 15.0312 3.256 15.1531 3.36665 15.3699C3.47731 15.5867 3.53947 15.8808 3.53947 16.1875V20.8125C3.53947 21.1192 3.47731 21.4133 3.36665 21.6301C3.256 21.8469 3.10592 21.9688 2.94942 21.9688C2.79293 21.9688 2.64285 21.8469 2.5322 21.6301C2.42154 21.4133 2.35938 21.1192 2.35938 20.8125V16.1875C2.35938 15.8808 2.42154 15.5867 2.5322 15.3699C2.64285 15.1531 2.79293 15.0312 2.94942 15.0312ZM17.1106 15.0312C17.2671 15.0312 17.4172 15.1531 17.5278 15.3699C17.6385 15.5867 17.7007 15.8808 17.7007 16.1875V20.8125C17.7007 21.1192 17.6385 21.4133 17.5278 21.6301C17.4172 21.8469 17.2671 21.9688 17.1106 21.9688C16.9541 21.9688 16.804 21.8469 16.6934 21.6301C16.5827 21.4133 16.5206 21.1192 16.5206 20.8125V16.1875C16.5206 15.8808 16.5827 15.5867 16.6934 15.3699C16.804 15.1531 16.9541 15.0312 17.1106 15.0312Z" fill="#067AC2"/>
<path fill-rule="evenodd" clip-rule="evenodd" d="M77.4636 11.5C77.6201 11.5 77.7702 11.5658 77.8808 11.6831C77.9915 11.8003 78.0537 11.9592 78.0537 12.125V25.875C78.0537 26.0408 77.9915 26.1997 77.8808 26.3169C77.7702 26.4342 77.6201 26.5 77.4636 26.5C77.3071 26.5 77.157 26.4342 77.0464 26.3169C76.9357 26.1997 76.8736 26.0408 76.8736 25.875V12.125C76.8736 11.9592 76.9357 11.8003 77.0464 11.6831C77.157 11.5658 77.3071 11.5 77.4636 11.5ZM75.1034 14C75.2599 14 75.41 14.0658 75.5206 14.1831C75.6313 14.3003 75.6935 14.4592 75.6935 14.625V23.375C75.6935 23.5408 75.6313 23.6997 75.5206 23.8169C75.41 23.9342 75.2599 24 75.1034 24C74.9469 24 74.7968 23.9342 74.6862 23.8169C74.5755 23.6997 74.5134 23.5408 74.5134 23.375V14.625C74.5134 14.4592 74.5755 14.3003 74.6862 14.1831C74.7968 14.0658 74.9469 14 75.1034 14ZM79.8238 14C79.9803 14 80.1304 14.0658 80.241 14.1831C80.3517 14.3003 80.4139 14.4592 80.4139 14.625V23.375C80.4139 23.5408 80.3517 23.6997 80.241 23.8169C80.1304 23.9342 79.9803 24 79.8238 24C79.6673 24 79.5172 23.9342 79.4066 23.8169C79.2959 23.6997 79.2338 23.5408 79.2338 23.375V14.625C79.2338 14.4592 79.2959 14.3003 79.4066 14.1831C79.5172 14.0658 79.6673 14 79.8238 14ZM72.7432 15.875C72.8997 15.875 73.0498 15.9408 73.1604 16.0581C73.2711 16.1753 73.3333 16.3342 73.3333 16.5V21.5C73.3333 21.6658 73.2711 21.8247 73.1604 21.9419C73.0498 22.0592 72.8997 22.125 72.7432 22.125C72.5867 22.125 72.4366 22.0592 72.326 21.9419C72.2153 21.8247 72.1532 21.6658 72.1532 21.5V16.5C72.1532 16.3342 72.2153 16.1753 72.326 16.0581C72.4366 15.9408 72.5867 15.875 72.7432 15.875ZM82.184 15.875C82.3405 15.875 82.4906 15.9408 82.6012 16.0581C82.7119 16.1753 82.7741 16.3342 82.7741 16.5V21.5C82.7741 21.6658 82.7119 21.8247 82.6012 21.9419C82.4906 22.0592 82.3405 22.125 82.184 22.125C82.0275 22.125 81.8774 22.0592 81.7668 21.9419C81.6561 21.8247 81.594 21.6658 81.594 21.5V16.5C81.594 16.3342 81.6561 16.1753 81.7668 16.0581C81.8774 15.9408 82.0275 15.875 82.184 15.875ZM70.383 17.125C70.5395 17.125 70.6896 17.1908 70.8002 17.3081C70.9109 17.4253 70.9731 17.5842 70.9731 17.75V20.25C70.9731 20.4158 70.9109 20.5747 70.8002 20.6919C70.6896 20.8092 70.5395 20.875 70.383 20.875C70.2265 20.875 70.0764 20.8092 69.9658 20.6919C69.8551 20.5747 69.793 20.4158 69.793 20.25V17.75C69.793 17.5842 69.8551 17.4253 69.9658 17.3081C70.0764 17.1908 70.2265 17.125 70.383 17.125ZM84.5442 17.125C84.7007 17.125 84.8508 17.1908 84.9614 17.3081C85.0721 17.4253 85.1343 17.5842 85.1343 17.75V20.25C85.1343 20.4158 85.0721 20.5747 84.9614 20.6919C84.8508 20.8092 84.7007 20.875 84.5442 20.875C84.3877 20.875 84.2376 20.8092 84.127 20.6919C84.0163 20.5747 83.9542 20.4158 83.9542 20.25V17.75C83.9542 17.5842 84.0163 17.4253 84.127 17.3081C84.2376 17.1908 84.3877 17.125 84.5442 17.125Z" fill="#067AC2"/>
<path fill-rule="evenodd" clip-rule="evenodd" d="M144.899 7.75C145.056 7.75 145.206 7.84877 145.316 8.02459C145.427 8.2004 145.489 8.43886 145.489 8.6875V29.3125C145.489 29.5611 145.427 29.7996 145.316 29.9754C145.206 30.1512 145.056 30.25 144.899 30.25C144.743 30.25 144.593 30.1512 144.482 29.9754C144.371 29.7996 144.309 29.5611 144.309 29.3125V8.6875C144.309 8.43886 144.371 8.2004 144.482 8.02459C144.593 7.84877 144.743 7.75 144.899 7.75ZM142.539 11.5C142.695 11.5 142.846 11.5988 142.956 11.7746C143.067 11.9504 143.129 12.1889 143.129 12.4375V25.5625C143.129 25.8111 143.067 26.0496 142.956 26.2254C142.846 26.4012 142.695 26.5 142.539 26.5C142.382 26.5 142.232 26.4012 142.122 26.2254C142.011 26.0496 141.949 25.8111 141.949 25.5625V12.4375C141.949 12.1889 142.011 11.9504 142.122 11.7746C142.232 11.5988 142.382 11.5 142.539 11.5ZM147.259 11.5C147.416 11.5 147.566 11.5988 147.677 11.7746C147.787 11.9504 147.849 12.1889 147.849 12.4375V25.5625C147.849 25.8111 147.787 26.0496 147.677 26.2254C147.566 26.4012 147.416 26.5 147.259 26.5C147.103 26.5 146.953 26.4012 146.842 26.2254C146.731 26.0496 146.669 25.8111 146.669 25.5625V12.4375C146.669 12.1889 146.731 11.9504 146.842 11.7746C146.953 11.5988 147.103 11.5 147.259 11.5ZM140.179 14.3125C140.335 14.3125 140.485 14.4113 140.596 14.5871C140.707 14.7629 140.769 15.0014 140.769 15.25V22.75C140.769 22.9986 140.707 23.2371 140.596 23.4129C140.485 23.5887 140.335 23.6875 140.179 23.6875C140.022 23.6875 139.872 23.5887 139.762 23.4129C139.651 23.2371 139.589 22.9986 139.589 22.75V15.25C139.589 15.0014 139.651 14.7629 139.762 14.5871C139.872 14.4113 140.022 14.3125 140.179 14.3125ZM149.62 14.3125C149.776 14.3125 149.926 14.4113 150.037 14.5871C150.147 14.7629 150.21 15.0014 150.21 15.25V22.75C150.21 22.9986 150.147 23.2371 150.037 23.4129C149.926 23.5887 149.776 23.6875 149.62 23.6875C149.463 23.6875 149.313 23.5887 149.202 23.4129C149.092 23.2371 149.03 22.9986 149.03 22.75V15.25C149.03 15.0014 149.092 14.7629 149.202 14.5871C149.313 14.4113 149.463 14.3125 149.62 14.3125ZM137.819 16.1875C137.975 16.1875 138.125 16.2863 138.236 16.4621C138.346 16.6379 138.409 16.8764 138.409 17.125V20.875C138.409 21.1236 138.346 21.3621 138.236 21.5379C138.125 21.7137 137.975 21.8125 137.819 21.8125C137.662 21.8125 137.512 21.7137 137.401 21.5379C137.291 21.3621 137.229 21.1236 137.229 20.875V17.125C137.229 16.8764 137.291 16.6379 137.401 16.4621C137.512 16.2863 137.662 16.1875 137.819 16.1875ZM151.98 16.1875C152.136 16.1875 152.286 16.2863 152.397 16.4621C152.508 16.6379 152.57 16.8764 152.57 17.125V20.875C152.57 21.1236 152.508 21.3621 152.397 21.5379C152.286 21.7137 152.136 21.8125 151.98 21.8125C151.823 21.8125 151.673 21.7137 151.563 21.5379C151.452 21.3621 151.39 21.1236 151.39 20.875V17.125C151.39 16.8764 151.452 16.6379 151.563 16.4621C151.673 16.2863 151.823 16.1875 151.98 16.1875Z" fill="#067AC2"/>
<path fill-rule="evenodd" clip-rule="evenodd" d="M59.5966 4.625C59.7829 4.625 59.9615 4.74682 60.0933 4.96366C60.225 5.1805 60.299 5.47459 60.299 5.78125V31.2188C60.299 31.5254 60.225 31.8195 60.0933 32.0363C59.9615 32.2532 59.7829 32.375 59.5966 32.375C59.4103 32.375 59.2316 32.2532 59.0999 32.0363C58.9681 31.8195 58.8941 31.5254 58.8941 31.2188V5.78125C58.8941 5.47459 58.9681 5.1805 59.0999 4.96366C59.2316 4.74682 59.4103 4.625 59.5966 4.625ZM56.7868 9.25C56.9731 9.25 57.1518 9.37182 57.2835 9.58866C57.4152 9.8055 57.4892 10.0996 57.4892 10.4062V26.5938C57.4892 26.9004 57.4152 27.1945 57.2835 27.4113C57.1518 27.6282 56.9731 27.75 56.7868 27.75C56.6005 27.75 56.4218 27.6282 56.2901 27.4113C56.1584 27.1945 56.0844 26.9004 56.0844 26.5938V10.4062C56.0844 10.0996 56.1584 9.8055 56.2901 9.58866C56.4218 9.37182 56.6005 9.25 56.7868 9.25ZM62.4063 9.25C62.5926 9.25 62.7713 9.37182 62.903 9.58866C63.0348 9.8055 63.1088 10.0996 63.1088 10.4062V26.5938C63.1088 26.9004 63.0348 27.1945 62.903 27.4113C62.7713 27.6282 62.5926 27.75 62.4063 27.75C62.22 27.75 62.0414 27.6282 61.9096 27.4113C61.7779 27.1945 61.7039 26.9004 61.7039 26.5938V10.4062C61.7039 10.0996 61.7779 9.8055 61.9096 9.58866C62.0414 9.37182 62.22 9.25 62.4063 9.25ZM53.977 12.7188C54.1633 12.7188 54.342 12.8406 54.4737 13.0574C54.6055 13.2742 54.6795 13.5683 54.6795 13.875V23.125C54.6795 23.4317 54.6055 23.7258 54.4737 23.9426C54.342 24.1594 54.1633 24.2812 53.977 24.2812C53.7907 24.2812 53.6121 24.1594 53.4803 23.9426C53.3486 23.7258 53.2746 23.4317 53.2746 23.125V13.875C53.2746 13.5683 53.3486 13.2742 53.4803 13.0574C53.6121 12.8406 53.7907 12.7188 53.977 12.7188ZM65.2161 12.7188C65.4024 12.7188 65.581 12.8406 65.7128 13.0574C65.8445 13.2742 65.9185 13.5683 65.9185 13.875V23.125C65.9185 23.4317 65.8445 23.7258 65.7128 23.9426C65.581 24.1594 65.4024 24.2812 65.2161 24.2812C65.0298 24.2812 64.8511 24.1594 64.7194 23.9426C64.5876 23.7258 64.5136 23.4317 64.5136 23.125V13.875C64.5136 13.5683 64.5876 13.2742 64.7194 13.0574C64.8511 12.8406 65.0298 12.7188 65.2161 12.7188ZM51.1673 15.0312C51.3536 15.0312 51.5323 15.1531 51.664 15.3699C51.7957 15.5867 51.8697 15.8808 51.8697 16.1875V20.8125C51.8697 21.1192 51.7957 21.4133 51.664 21.6301C51.5323 21.8469 51.3536 21.9688 51.1673 21.9688C50.981 21.9688 50.8023 21.8469 50.6706 21.6301C50.5389 21.4133 50.4648 21.1192 50.4648 20.8125V16.1875C50.4648 15.8808 50.5389 15.5867 50.6706 15.3699C50.8023 15.1531 50.981 15.0312 51.1673 15.0312ZM68.0258 15.0312C68.2121 15.0312 68.3908 15.1531 68.5225 15.3699C68.6543 15.5867 68.7283 15.8808 68.7283 16.1875V20.8125C68.7283 21.1192 68.6543 21.4133 68.5225 21.6301C68.3908 21.8469 68.2121 21.9688 68.0258 21.9688C67.8395 21.9688 67.6609 21.8469 67.5291 21.6301C67.3974 21.4133 67.3234 21.1192 67.3234 20.8125V16.1875C67.3234 15.8808 67.3974 15.5867 67.5291 15.3699C67.6609 15.1531 67.8395 15.0312 68.0258 15.0312Z" fill="#067AC2"/>
<path fill-rule="evenodd" clip-rule="evenodd" d="M127.03 11.5C127.216 11.5 127.395 11.5658 127.527 11.6831C127.659 11.8003 127.733 11.9592 127.733 12.125V25.875C127.733 26.0408 127.659 26.1997 127.527 26.3169C127.395 26.4342 127.216 26.5 127.03 26.5C126.844 26.5 126.665 26.4342 126.533 26.3169C126.402 26.1997 126.328 26.0408 126.328 25.875V12.125C126.328 11.9592 126.402 11.8003 126.533 11.6831C126.665 11.5658 126.844 11.5 127.03 11.5ZM124.22 14C124.407 14 124.585 14.0658 124.717 14.1831C124.849 14.3003 124.923 14.4592 124.923 14.625V23.375C124.923 23.5408 124.849 23.6997 124.717 23.8169C124.585 23.9342 124.407 24 124.22 24C124.034 24 123.855 23.9342 123.724 23.8169C123.592 23.6997 123.518 23.5408 123.518 23.375V14.625C123.518 14.4592 123.592 14.3003 123.724 14.1831C123.855 14.0658 124.034 14 124.22 14ZM129.84 14C130.026 14 130.205 14.0658 130.337 14.1831C130.468 14.3003 130.542 14.4592 130.542 14.625V23.375C130.542 23.5408 130.468 23.6997 130.337 23.8169C130.205 23.9342 130.026 24 129.84 24C129.654 24 129.475 23.9342 129.343 23.8169C129.211 23.6997 129.137 23.5408 129.137 23.375V14.625C129.137 14.4592 129.211 14.3003 129.343 14.1831C129.475 14.0658 129.654 14 129.84 14ZM121.411 15.875C121.597 15.875 121.776 15.9408 121.907 16.0581C122.039 16.1753 122.113 16.3342 122.113 16.5V21.5C122.113 21.6658 122.039 21.8247 121.907 21.9419C121.776 22.0592 121.597 22.125 121.411 22.125C121.224 22.125 121.046 22.0592 120.914 21.9419C120.782 21.8247 120.708 21.6658 120.708 21.5V16.5C120.708 16.3342 120.782 16.1753 120.914 16.0581C121.046 15.9408 121.224 15.875 121.411 15.875ZM132.65 15.875C132.836 15.875 133.015 15.9408 133.146 16.0581C133.278 16.1753 133.352 16.3342 133.352 16.5V21.5C133.352 21.6658 133.278 21.8247 133.146 21.9419C133.015 22.0592 132.836 22.125 132.65 22.125C132.463 22.125 132.285 22.0592 132.153 21.9419C132.021 21.8247 131.947 21.6658 131.947 21.5V16.5C131.947 16.3342 132.021 16.1753 132.153 16.0581C132.285 15.9408 132.463 15.875 132.65 15.875ZM118.601 17.125C118.787 17.125 118.966 17.1908 119.098 17.3081C119.229 17.4253 119.303 17.5842 119.303 17.75V20.25C119.303 20.4158 119.229 20.5747 119.098 20.6919C118.966 20.8092 118.787 20.875 118.601 20.875C118.415 20.875 118.236 20.8092 118.104 20.6919C117.972 20.5747 117.898 20.4158 117.898 20.25V17.75C117.898 17.5842 117.972 17.4253 118.104 17.3081C118.236 17.1908 118.415 17.125 118.601 17.125ZM135.459 17.125C135.646 17.125 135.824 17.1908 135.956 17.3081C136.088 17.4253 136.162 17.5842 136.162 17.75V20.25C136.162 20.4158 136.088 20.5747 135.956 20.6919C135.824 20.8092 135.646 20.875 135.459 20.875C135.273 20.875 135.094 20.8092 134.963 20.6919C134.831 20.5747 134.757 20.4158 134.757 20.25V17.75C134.757 17.5842 134.831 17.4253 134.963 17.3081C135.094 17.1908 135.273 17.125 135.459 17.125Z" fill="#067AC2"/>
<path fill-rule="evenodd" clip-rule="evenodd" d="M194.464 7.75C194.65 7.75 194.829 7.84877 194.96 8.02459C195.092 8.2004 195.166 8.43886 195.166 8.6875V29.3125C195.166 29.5611 195.092 29.7996 194.96 29.9754C194.829 30.1512 194.65 30.25 194.464 30.25C194.277 30.25 194.099 30.1512 193.967 29.9754C193.835 29.7996 193.761 29.5611 193.761 29.3125V8.6875C193.761 8.43886 193.835 8.2004 193.967 8.02459C194.099 7.84877 194.277 7.75 194.464 7.75ZM191.654 11.5C191.84 11.5 192.019 11.5988 192.151 11.7746C192.282 11.9504 192.356 12.1889 192.356 12.4375V25.5625C192.356 25.8111 192.282 26.0496 192.151 26.2254C192.019 26.4012 191.84 26.5 191.654 26.5C191.468 26.5 191.289 26.4012 191.157 26.2254C191.026 26.0496 190.952 25.8111 190.952 25.5625V12.4375C190.952 12.1889 191.026 11.9504 191.157 11.7746C191.289 11.5988 191.468 11.5 191.654 11.5ZM197.274 11.5C197.46 11.5 197.638 11.5988 197.77 11.7746C197.902 11.9504 197.976 12.1889 197.976 12.4375V25.5625C197.976 25.8111 197.902 26.0496 197.77 26.2254C197.638 26.4012 197.46 26.5 197.274 26.5C197.087 26.5 196.909 26.4012 196.777 26.2254C196.645 26.0496 196.571 25.8111 196.571 25.5625V12.4375C196.571 12.1889 196.645 11.9504 196.777 11.7746C196.909 11.5988 197.087 11.5 197.274 11.5ZM188.844 14.3125C189.031 14.3125 189.209 14.4113 189.341 14.5871C189.473 14.7629 189.547 15.0014 189.547 15.25V22.75C189.547 22.9986 189.473 23.2371 189.341 23.4129C189.209 23.5887 189.031 23.6875 188.844 23.6875C188.658 23.6875 188.479 23.5887 188.348 23.4129C188.216 23.2371 188.142 22.9986 188.142 22.75V15.25C188.142 15.0014 188.216 14.7629 188.348 14.5871C188.479 14.4113 188.658 14.3125 188.844 14.3125ZM200.083 14.3125C200.27 14.3125 200.448 14.4113 200.58 14.5871C200.712 14.7629 200.786 15.0014 200.786 15.25V22.75C200.786 22.9986 200.712 23.2371 200.58 23.4129C200.448 23.5887 200.27 23.6875 200.083 23.6875C199.897 23.6875 199.718 23.5887 199.587 23.4129C199.455 23.2371 199.381 22.9986 199.381 22.75V15.25C199.381 15.0014 199.455 14.7629 199.587 14.5871C199.718 14.4113 199.897 14.3125 200.083 14.3125ZM186.034 16.1875C186.221 16.1875 186.399 16.2863 186.531 16.4621C186.663 16.6379 186.737 16.8764 186.737 17.125V20.875C186.737 21.1236 186.663 21.3621 186.531 21.5379C186.399 21.7137 186.221 21.8125 186.034 21.8125C185.848 21.8125 185.67 21.7137 185.538 21.5379C185.406 21.3621 185.332 21.1236 185.332 20.875V17.125C185.332 16.8764 185.406 16.6379 185.538 16.4621C185.67 16.2863 185.848 16.1875 186.034 16.1875ZM202.893 16.1875C203.079 16.1875 203.258 16.2863 203.39 16.4621C203.521 16.6379 203.595 16.8764 203.595 17.125V20.875C203.595 21.1236 203.521 21.3621 203.39 21.5379C203.258 21.7137 203.079 21.8125 202.893 21.8125C202.707 21.8125 202.528 21.7137 202.396 21.5379C202.265 21.3621 202.191 21.1236 202.191 20.875V17.125C202.191 16.8764 202.265 16.6379 202.396 16.4621C202.528 16.2863 202.707 16.1875 202.893 16.1875Z" fill="#067AC2"/>
</svg>
