<svg width="28" height="37" viewBox="0 0 28 37" fill="none" xmlns="http://www.w3.org/2000/svg">
<path fill-rule="evenodd" clip-rule="evenodd" d="M13.6486 0.27063C7.48029 0.27063 2.47888 5.09135 2.47888 11.0382C2.47888 12.5738 2.81942 14.0344 3.41877 15.3562L13.8393 32.0114L23.8784 15.3562C24.4958 14.0008 24.8149 12.5281 24.8138 11.0382C24.8138 5.09135 19.8169 0.27063 13.6486 0.27063ZM13.6486 18.6754C12.7268 18.6739 11.8143 18.4904 10.9633 18.1353C10.1123 17.7802 9.33952 17.2605 8.68907 16.606C8.03862 15.9514 7.52328 15.1748 7.17252 14.3206C6.82175 13.4663 6.64244 12.5512 6.64483 11.6274C6.64304 10.704 6.82278 9.7892 7.17378 8.93535C7.52478 8.0815 8.04018 7.30529 8.69054 6.65104C9.3409 5.99678 10.1135 5.4773 10.9642 5.12226C11.8149 4.76721 12.7271 4.58355 13.6486 4.58176C15.5098 4.58597 17.2931 5.33044 18.6068 6.65156C19.9205 7.97269 20.6571 9.76239 20.6547 11.6274C20.6577 13.4929 19.9214 15.2832 18.6076 16.6048C17.2939 17.9264 15.5102 18.6712 13.6486 18.6754ZM18.1369 11.5364C18.1381 12.1285 18.0229 12.7149 17.7979 13.2623C17.5728 13.8097 17.2423 14.3073 16.8253 14.7267C16.4083 15.146 15.9129 15.479 15.3674 15.7064C14.822 15.9339 14.2371 16.0514 13.6463 16.0523C12.4537 16.0493 11.3111 15.572 10.4695 14.7252C9.62792 13.8784 9.15621 12.7315 9.15802 11.5364C9.15712 10.9449 9.27251 10.359 9.49758 9.81211C9.72266 9.26526 10.053 8.76818 10.4698 8.34927C10.8866 7.93035 11.3816 7.5978 11.9266 7.3706C12.4717 7.1434 13.056 7.026 13.6463 7.02511C16.1255 7.02511 18.1369 9.04758 18.1369 11.5364Z" fill="white"/>
<path fill-rule="evenodd" clip-rule="evenodd" d="M13.6486 0.27063C7.48029 0.27063 2.47888 5.09135 2.47888 11.0382C2.47888 12.5738 2.81942 14.0344 3.41877 15.3562L13.8393 32.0114L23.8784 15.3562C24.4958 14.0008 24.8149 12.5281 24.8138 11.0382C24.8138 5.09135 19.8169 0.27063 13.6486 0.27063ZM13.6486 18.6754C12.7268 18.6739 11.8143 18.4904 10.9633 18.1353C10.1123 17.7802 9.33952 17.2605 8.68907 16.606C8.03862 15.9514 7.52328 15.1748 7.17252 14.3206C6.82175 13.4663 6.64244 12.5512 6.64483 11.6274C6.64304 10.704 6.82278 9.7892 7.17378 8.93535C7.52478 8.0815 8.04018 7.30529 8.69054 6.65104C9.3409 5.99678 10.1135 5.4773 10.9642 5.12226C11.8149 4.76721 12.7271 4.58355 13.6486 4.58176C15.5098 4.58597 17.2931 5.33044 18.6068 6.65156C19.9205 7.97269 20.6571 9.76239 20.6547 11.6274C20.6577 13.4929 19.9214 15.2832 18.6076 16.6048C17.2939 17.9264 15.5102 18.6712 13.6486 18.6754ZM18.1369 11.5364C18.1381 12.1285 18.0229 12.7149 17.7979 13.2623C17.5728 13.8097 17.2423 14.3073 16.8253 14.7267C16.4083 15.146 15.9129 15.479 15.3674 15.7064C14.822 15.9339 14.2371 16.0514 13.6463 16.0523C12.4537 16.0493 11.3111 15.572 10.4695 14.7252C9.62792 13.8784 9.15621 12.7315 9.15802 11.5364C9.15712 10.9449 9.27251 10.359 9.49758 9.81211C9.72266 9.26526 10.053 8.76818 10.4698 8.34927C10.8866 7.93035 11.3816 7.5978 11.9266 7.3706C12.4717 7.1434 13.056 7.026 13.6463 7.02511C16.1255 7.02511 18.1369 9.04758 18.1369 11.5364Z" fill="url(#paint0_linear)"/>
<path fill-rule="evenodd" clip-rule="evenodd" d="M7.51665 27.0974C3.6186 27.9255 1.99989 29.013 1.99989 30.2346C1.99989 31.9841 6.15676 34.3956 13.6146 34.3956C21.0724 34.3956 25.2293 31.9841 25.2293 30.2346C25.2293 29.0175 23.622 27.9619 19.7784 27.0974V25.2319C24.0124 26.0646 27.1658 27.7367 27.1658 30.2346C27.1658 33.8382 20.1825 36.5364 13.6146 36.5364C7.04671 36.5364 0.0633545 33.8382 0.0633545 30.2346C0.0633545 27.7321 3.23719 26.0282 7.49395 25.2251L7.51665 27.0974Z" fill="white"/>
<path fill-rule="evenodd" clip-rule="evenodd" d="M7.51665 27.0974C3.6186 27.9255 1.99989 29.013 1.99989 30.2346C1.99989 31.9841 6.15676 34.3956 13.6146 34.3956C21.0724 34.3956 25.2293 31.9841 25.2293 30.2346C25.2293 29.0175 23.622 27.9619 19.7784 27.0974V25.2319C24.0124 26.0646 27.1658 27.7367 27.1658 30.2346C27.1658 33.8382 20.1825 36.5364 13.6146 36.5364C7.04671 36.5364 0.0633545 33.8382 0.0633545 30.2346C0.0633545 27.7321 3.23719 26.0282 7.49395 25.2251L7.51665 27.0974Z" fill="url(#paint1_linear)"/>
<defs>
<linearGradient id="paint0_linear" x1="2.47888" y1="16.0571" x2="24.3752" y2="16.0571" gradientUnits="userSpaceOnUse">
<stop stop-color="#4DBCEF"/>
<stop offset="1" stop-color="#1B8ACC"/>
</linearGradient>
<linearGradient id="paint1_linear" x1="0.0633544" y1="30.8508" x2="26.6336" y2="30.8508" gradientUnits="userSpaceOnUse">
<stop stop-color="#4DBCEF"/>
<stop offset="1" stop-color="#1B8ACC"/>
</linearGradient>
</defs>
</svg>
