<svg width="35" height="28" viewBox="0 0 35 28" fill="none" xmlns="http://www.w3.org/2000/svg">
<path d="M7.88712 27.9361C7.89481 27.9414 7.90505 27.9387 7.91273 27.944C7.97319 27.9785 8.04079 27.9977 8.10993 28C8.14801 27.9999 8.1859 27.9946 8.22261 27.9842L17.5002 25.389L26.7777 27.9842C26.8144 27.9946 26.8523 27.9999 26.8904 28C26.9594 27.9979 27.0269 27.9783 27.0868 27.9431C27.0953 27.9387 27.1047 27.9405 27.1124 27.9352L34.7953 23.1227C34.8747 23.0728 34.9359 22.9976 34.9698 22.9087C35.0037 22.8198 35.0084 22.722 34.9831 22.6301L30.7285 7.31762C30.7111 7.25385 30.6797 7.19497 30.6368 7.14544C30.594 7.09591 30.5406 7.05703 30.4809 7.03174C30.4212 7.00645 30.3567 6.99541 30.2922 6.99946C30.2277 7.00351 30.165 7.02255 30.1087 7.05512L25.8729 9.49112C25.7801 9.55115 25.7134 9.64542 25.6865 9.75445C25.6596 9.86347 25.6747 9.97891 25.7285 10.0769C25.7823 10.1749 25.8708 10.2479 25.9757 10.2809C26.0806 10.3139 26.1938 10.3043 26.292 10.2541L30.0558 8.0885L34.074 22.5487L27.2319 26.8354L25.6065 13.5082C25.5925 13.393 25.5344 13.2882 25.445 13.2169C25.3555 13.1456 25.2422 13.1137 25.1297 13.1281C25.0173 13.1424 24.9151 13.202 24.8455 13.2937C24.776 13.3853 24.7448 13.5015 24.7588 13.6167L26.3868 26.9684L17.927 24.6015V22.2127C17.927 22.0967 17.882 21.9854 17.802 21.9034C17.7219 21.8213 17.6134 21.7752 17.5002 21.7752C17.387 21.7752 17.2784 21.8213 17.1984 21.9034C17.1183 21.9854 17.0733 22.0967 17.0733 22.2127V24.6015L8.61273 26.9684L10.2407 13.6167C10.2476 13.5597 10.2435 13.5018 10.2287 13.4464C10.2138 13.3909 10.1884 13.339 10.1539 13.2937C10.1195 13.2483 10.0767 13.2103 10.0279 13.1819C9.97915 13.1535 9.9254 13.1352 9.86974 13.1281C9.81409 13.1209 9.7576 13.1251 9.70352 13.1404C9.64944 13.1556 9.59881 13.1816 9.55454 13.2169C9.51027 13.2522 9.47322 13.2961 9.44549 13.3461C9.41777 13.3961 9.39993 13.4512 9.39298 13.5082L7.76846 26.8354L0.92639 22.5496L4.94456 8.09025L8.70834 10.2559C8.80652 10.306 8.91976 10.3156 9.02463 10.2826C9.12951 10.2497 9.21802 10.1766 9.27184 10.0786C9.32567 9.98066 9.3407 9.86522 9.31383 9.7562C9.28697 9.64717 9.22025 9.5529 9.12749 9.49287L4.89078 7.056C4.83466 7.02306 4.77193 7.00374 4.7074 6.99951C4.64287 6.99528 4.57825 7.00626 4.5185 7.0316C4.45875 7.05695 4.40545 7.09598 4.3627 7.14571C4.31995 7.19544 4.28888 7.25455 4.27188 7.3185L0.0172437 22.631C-0.00848935 22.7229 -0.00404576 22.8208 0.0298901 22.9099C0.063826 22.9989 0.125372 23.074 0.205049 23.1236L7.88712 27.9361Z" fill="white"/>
<path d="M17.2106 20.447C17.289 20.5211 17.3916 20.5625 17.4982 20.563C17.6049 20.5635 17.7078 20.5231 17.7868 20.4496C18.0711 20.1845 24.7561 13.8967 24.7561 7.4375C24.7561 3.26637 21.5694 0 17.5 0C13.4306 0 10.2439 3.26637 10.2439 7.4375C10.2439 13.7847 16.9263 20.1775 17.2106 20.447ZM17.5 0.875C21.1494 0.875 23.9024 3.696 23.9024 7.4375C23.9024 12.7724 18.7865 18.2324 17.5026 19.5186C16.2212 18.2175 11.0976 12.6858 11.0976 7.4375C11.0976 3.696 13.8506 0.875 17.5 0.875Z" fill="white"/>
<path d="M21.3416 7.4375C21.3416 5.26663 19.6181 3.5 17.5002 3.5C15.3822 3.5 13.6587 5.26663 13.6587 7.4375C13.6587 9.60838 15.3822 11.375 17.5002 11.375C19.6181 11.375 21.3416 9.60838 21.3416 7.4375ZM17.5002 10.5C15.8526 10.5 14.5123 9.12625 14.5123 7.4375C14.5123 5.74875 15.8526 4.375 17.5002 4.375C19.1477 4.375 20.488 5.74875 20.488 7.4375C20.488 9.12625 19.1477 10.5 17.5002 10.5Z" fill="white"/>
</svg>
