<svg width="28" height="28" viewBox="0 0 28 28" fill="none" xmlns="http://www.w3.org/2000/svg">
<path d="M15.1668 12.8333H8.16683C7.85741 12.8333 7.56066 12.9562 7.34187 13.175C7.12308 13.3938 7.00016 13.6906 7.00016 14C7.00016 14.3094 7.12308 14.6061 7.34187 14.8249C7.56066 15.0437 7.85741 15.1666 8.16683 15.1666H15.1668C15.4762 15.1666 15.773 15.0437 15.9918 14.8249C16.2106 14.6061 16.3335 14.3094 16.3335 14C16.3335 13.6906 16.2106 13.3938 15.9918 13.175C15.773 12.9562 15.4762 12.8333 15.1668 12.8333ZM19.8335 8.16665H8.16683C7.85741 8.16665 7.56066 8.28956 7.34187 8.50836C7.12308 8.72715 7.00016 9.02389 7.00016 9.33331C7.00016 9.64273 7.12308 9.93948 7.34187 10.1583C7.56066 10.3771 7.85741 10.5 8.16683 10.5H19.8335C20.1429 10.5 20.4397 10.3771 20.6585 10.1583C20.8772 9.93948 21.0002 9.64273 21.0002 9.33331C21.0002 9.02389 20.8772 8.72715 20.6585 8.50836C20.4397 8.28956 20.1429 8.16665 19.8335 8.16665ZM22.1668 2.33331H5.8335C4.90524 2.33331 4.015 2.70206 3.35862 3.35844C2.70225 4.01482 2.3335 4.90506 2.3335 5.83331V17.5C2.3335 18.4282 2.70225 19.3185 3.35862 19.9749C4.015 20.6312 4.90524 21 5.8335 21H19.3552L23.6718 25.3283C23.7808 25.4364 23.9101 25.522 24.0523 25.58C24.1944 25.6381 24.3466 25.6675 24.5002 25.6666C24.6532 25.6706 24.805 25.6386 24.9435 25.5733C25.1566 25.4858 25.3389 25.3372 25.4677 25.1462C25.5964 24.9551 25.6657 24.7303 25.6668 24.5V5.83331C25.6668 4.90506 25.2981 4.01482 24.6417 3.35844C23.9853 2.70206 23.0951 2.33331 22.1668 2.33331ZM23.3335 21.6883L20.6618 19.005C20.5528 18.8969 20.4235 18.8113 20.2814 18.7532C20.1392 18.6952 19.987 18.6658 19.8335 18.6666H5.8335C5.52408 18.6666 5.22733 18.5437 5.00854 18.3249C4.78975 18.1061 4.66683 17.8094 4.66683 17.5V5.83331C4.66683 5.52389 4.78975 5.22715 5.00854 5.00836C5.22733 4.78956 5.52408 4.66665 5.8335 4.66665H22.1668C22.4762 4.66665 22.773 4.78956 22.9918 5.00836C23.2106 5.22715 23.3335 5.52389 23.3335 5.83331V21.6883Z" fill="#F7F7F7"/>
</svg>
