<svg width="31" height="22" viewBox="0 0 31 22" fill="none" xmlns="http://www.w3.org/2000/svg">
<path d="M28.6224 0.309234L16.6717 10.982C16.3944 11.2297 16.0359 11.3666 15.6645 11.3666C15.293 11.3666 14.9345 11.2297 14.6572 10.982L2.65656 0.315301C2.94306 0.227738 3.24093 0.183271 3.54046 0.183351H27.7567C28.0498 0.183085 28.3414 0.225489 28.6224 0.309234ZM30.6747 2.40982C30.7459 2.66765 30.7837 2.93762 30.7837 3.21668V18.3834C30.7837 19.1878 30.4648 19.9594 29.8971 20.5282C29.3294 21.0971 28.5595 21.4167 27.7567 21.4167H3.54046C2.73764 21.4167 1.9677 21.0971 1.40003 20.5282C0.832347 19.9594 0.51343 19.1878 0.51343 18.3834V3.21668C0.51313 2.94303 0.549787 2.67059 0.622403 2.40678L12.6427 13.2479C13.4744 13.9907 14.5496 14.4011 15.6637 14.4011C16.7778 14.4011 17.853 13.9907 18.6847 13.2479L30.6747 2.40982Z" fill="white"/>
<path d="M28.6224 0.309234L16.6717 10.982C16.3944 11.2297 16.0359 11.3666 15.6645 11.3666C15.293 11.3666 14.9345 11.2297 14.6572 10.982L2.65656 0.315301C2.94306 0.227738 3.24093 0.183271 3.54046 0.183351H27.7567C28.0498 0.183085 28.3414 0.225489 28.6224 0.309234ZM30.6747 2.40982C30.7459 2.66765 30.7837 2.93762 30.7837 3.21668V18.3834C30.7837 19.1878 30.4648 19.9594 29.8971 20.5282C29.3294 21.0971 28.5595 21.4167 27.7567 21.4167H3.54046C2.73764 21.4167 1.9677 21.0971 1.40003 20.5282C0.832347 19.9594 0.51343 19.1878 0.51343 18.3834V3.21668C0.51313 2.94303 0.549787 2.67059 0.622403 2.40678L12.6427 13.2479C13.4744 13.9907 14.5496 14.4011 15.6637 14.4011C16.7778 14.4011 17.853 13.9907 18.6847 13.2479L30.6747 2.40982Z" fill="url(#paint0_linear)"/>
<defs>
<linearGradient id="paint0_linear" x1="0.513428" y1="10.7438" x2="30.1893" y2="10.7438" gradientUnits="userSpaceOnUse">
<stop stop-color="#4DBCEF"/>
<stop offset="1" stop-color="#1B8ACC"/>
</linearGradient>
</defs>
</svg>
