<svg width="32" height="32" viewBox="0 0 32 32" fill="none" xmlns="http://www.w3.org/2000/svg">
<path d="M13.3333 4H5.33333C4.97971 4 4.64057 4.14048 4.39052 4.39052C4.14048 4.64057 4 4.97971 4 5.33333V13.3333C4 13.687 4.14048 14.0261 4.39052 14.2761C4.64057 14.5262 4.97971 14.6667 5.33333 14.6667H13.3333C13.687 14.6667 14.0261 14.5262 14.2761 14.2761C14.5262 14.0261 14.6667 13.687 14.6667 13.3333V5.33333C14.6667 4.97971 14.5262 4.64057 14.2761 4.39052C14.0261 4.14048 13.687 4 13.3333 4ZM12 12H6.66667V6.66667H12V12ZM26.6667 17.3333H18.6667C18.313 17.3333 17.9739 17.4738 17.7239 17.7239C17.4738 17.9739 17.3333 18.313 17.3333 18.6667V26.6667C17.3333 27.0203 17.4738 27.3594 17.7239 27.6095C17.9739 27.8595 18.313 28 18.6667 28H26.6667C27.0203 28 27.3594 27.8595 27.6095 27.6095C27.8595 27.3594 28 27.0203 28 26.6667V18.6667C28 18.313 27.8595 17.9739 27.6095 17.7239C27.3594 17.4738 27.0203 17.3333 26.6667 17.3333ZM25.3333 25.3333H20V20H25.3333V25.3333ZM22.6667 4C19.7253 4 17.3333 6.392 17.3333 9.33333C17.3333 12.2747 19.7253 14.6667 22.6667 14.6667C25.608 14.6667 28 12.2747 28 9.33333C28 6.392 25.608 4 22.6667 4ZM22.6667 12C21.196 12 20 10.804 20 9.33333C20 7.86267 21.196 6.66667 22.6667 6.66667C24.1373 6.66667 25.3333 7.86267 25.3333 9.33333C25.3333 10.804 24.1373 12 22.6667 12ZM9.33333 17.3333C6.392 17.3333 4 19.7253 4 22.6667C4 25.608 6.392 28 9.33333 28C12.2747 28 14.6667 25.608 14.6667 22.6667C14.6667 19.7253 12.2747 17.3333 9.33333 17.3333ZM9.33333 25.3333C7.86267 25.3333 6.66667 24.1373 6.66667 22.6667C6.66667 21.196 7.86267 20 9.33333 20C10.804 20 12 21.196 12 22.6667C12 24.1373 10.804 25.3333 9.33333 25.3333Z" fill="#1B8ACC"/>
</svg>
