<svg width="33" height="30" viewBox="0 0 33 30" fill="none" xmlns="http://www.w3.org/2000/svg">
<path d="M21.41 22.25C21.1914 22.2529 20.9779 22.1841 20.8021 22.0541C20.6263 21.9242 20.498 21.7402 20.4367 21.5303C20.3755 21.3204 20.3847 21.0963 20.4629 20.8921C20.5412 20.688 20.6842 20.5151 20.87 20.4C21.78 19.832 22.5273 19.0381 23.0392 18.0955C23.551 17.1528 23.81 16.0937 23.7909 15.0212C23.7718 13.9487 23.4752 12.8995 22.93 11.9757C22.3848 11.052 21.6097 10.2851 20.68 9.75001C20.5605 9.68749 20.4549 9.60145 20.3695 9.49705C20.2841 9.39266 20.2207 9.27207 20.1832 9.14254C20.1456 9.01302 20.1346 8.87722 20.1509 8.74334C20.1671 8.60945 20.2103 8.48024 20.2778 8.36348C20.3453 8.24671 20.4357 8.14481 20.5436 8.06389C20.6515 7.98298 20.7746 7.92472 20.9056 7.89263C21.0366 7.86055 21.1728 7.85529 21.3059 7.87718C21.4389 7.89907 21.5662 7.94765 21.68 8.02001C22.9039 8.7297 23.9237 9.74363 24.6404 10.9635C25.3571 12.1833 25.7463 13.5676 25.7705 14.9822C25.7946 16.3968 25.4528 17.7936 24.7782 19.0372C24.1036 20.2808 23.119 21.329 21.92 22.08C21.7687 22.1822 21.5924 22.241 21.41 22.25Z" fill="white"/>
<path d="M23.62 28.18C23.3961 28.1787 23.1791 28.1022 23.0038 27.9629C22.8284 27.8236 22.705 27.6295 22.6531 27.4116C22.6012 27.1938 22.624 26.9649 22.7177 26.7615C22.8114 26.5581 22.9707 26.3921 23.17 26.29C25.2678 25.2564 27.0317 23.6523 28.2594 21.6619C29.4872 19.6714 30.129 17.3752 30.1112 15.0367C30.0935 12.6981 29.4169 10.4119 28.1591 8.44036C26.9013 6.46879 25.1132 4.8917 23 3.89C22.8781 3.83521 22.7684 3.75653 22.6774 3.65862C22.5864 3.5607 22.5159 3.44554 22.4702 3.31994C22.4245 3.19433 22.4044 3.06084 22.4112 2.92735C22.4179 2.79385 22.4514 2.66307 22.5096 2.54272C22.5677 2.42238 22.6494 2.31491 22.7498 2.22669C22.8503 2.13846 22.9673 2.07125 23.0942 2.02905C23.221 1.98684 23.355 1.97049 23.4882 1.98096C23.6215 1.99143 23.7513 2.02851 23.87 2.09C26.3246 3.24882 28.4029 5.07604 29.8665 7.36208C31.3301 9.64813 32.1197 12.3004 32.1448 15.0147C32.1698 17.729 31.4293 20.3955 30.0082 22.7081C28.587 25.0208 26.5428 26.8861 24.11 28.09C23.9569 28.1609 23.7883 28.1918 23.62 28.18Z" fill="white"/>
<path d="M16 29.06C15.7361 29.0602 15.4747 29.0082 15.231 28.9069C14.9873 28.8057 14.7661 28.6572 14.58 28.47L7.14 21H2C1.46957 21 0.960859 20.7893 0.585786 20.4142C0.210714 20.0391 0 19.5304 0 19V11C0 10.4696 0.210714 9.96086 0.585786 9.58579C0.960859 9.21072 1.46957 9 2 9H7.22L14.55 1.61C14.8262 1.31927 15.1834 1.11827 15.5752 1.03309C15.9671 0.947919 16.3755 0.982506 16.7475 1.13236C17.1194 1.28222 17.4377 1.54043 17.6611 1.87347C17.8844 2.20651 18.0025 2.59901 18 3V27C18 27.3966 17.8821 27.7842 17.6613 28.1136C17.4405 28.443 17.1268 28.6993 16.76 28.85C16.5231 28.9697 16.2648 29.0411 16 29.06ZM2 11V19H7.56C7.69231 19.0006 7.82319 19.0274 7.94507 19.0788C8.06694 19.1303 8.17739 19.2055 8.27 19.3L16 27.06V3L8.35 10.7C8.25739 10.7945 8.14694 10.8697 8.02507 10.9212C7.90319 10.9727 7.77231 10.9995 7.64 11H2Z" fill="white"/>
</svg>
