<svg width="27" height="28" viewBox="0 0 27 28" fill="none" xmlns="http://www.w3.org/2000/svg">
<path d="M26.4936 21.1957L20.3412 15.5901C20.0503 15.3253 19.6682 15.184 19.2754 15.1962C18.8825 15.2083 18.5098 15.373 18.2359 15.6554L14.614 19.3879C13.7423 19.221 11.9896 18.6735 10.1855 16.8702C8.38139 15.0608 7.83501 13.3 7.67306 12.4324L11.3948 8.80155C11.6769 8.52722 11.8415 8.15366 11.8536 7.75991C11.8658 7.36616 11.7246 6.98312 11.4599 6.69186L5.86744 0.528128C5.60264 0.235952 5.23461 0.0587257 4.84151 0.0340881C4.44841 0.00945056 4.06121 0.139343 3.76214 0.396178L0.477821 3.21869C0.216151 3.48186 0.0599695 3.83211 0.038902 4.20301C0.0161993 4.58218 -0.416665 13.5639 6.53339 20.5314C12.5965 26.6057 20.1913 27.0501 22.283 27.0501C22.5887 27.0501 22.7764 27.041 22.8264 27.0379C23.1964 27.0172 23.5458 26.86 23.8071 26.5966L26.6223 23.3039C26.8796 23.0052 27.0101 22.6175 26.9861 22.2236C26.9621 21.8297 26.7853 21.4608 26.4936 21.1957Z" fill="white"/>
<path d="M26.4936 21.1957L20.3412 15.5901C20.0503 15.3253 19.6682 15.184 19.2754 15.1962C18.8825 15.2083 18.5098 15.373 18.2359 15.6554L14.614 19.3879C13.7423 19.221 11.9896 18.6735 10.1855 16.8702C8.38139 15.0608 7.83501 13.3 7.67306 12.4324L11.3948 8.80155C11.6769 8.52722 11.8415 8.15366 11.8536 7.75991C11.8658 7.36616 11.7246 6.98312 11.4599 6.69186L5.86744 0.528128C5.60264 0.235952 5.23461 0.0587257 4.84151 0.0340881C4.44841 0.00945056 4.06121 0.139343 3.76214 0.396178L0.477821 3.21869C0.216151 3.48186 0.0599695 3.83211 0.038902 4.20301C0.0161993 4.58218 -0.416665 13.5639 6.53339 20.5314C12.5965 26.6057 20.1913 27.0501 22.283 27.0501C22.5887 27.0501 22.7764 27.041 22.8264 27.0379C23.1964 27.0172 23.5458 26.86 23.8071 26.5966L26.6223 23.3039C26.8796 23.0052 27.0101 22.6175 26.9861 22.2236C26.9621 21.8297 26.7853 21.4608 26.4936 21.1957Z" fill="url(#paint0_linear)"/>
<defs>
<linearGradient id="paint0_linear" x1="0.0263671" y1="13.4691" x2="26.4594" y2="13.4691" gradientUnits="userSpaceOnUse">
<stop stop-color="#4DBCEF"/>
<stop offset="1" stop-color="#1B8ACC"/>
</linearGradient>
</defs>
</svg>
