<svg width="144" height="50" viewBox="0 0 144 50" fill="none" xmlns="http://www.w3.org/2000/svg">
<rect y="0.400024" width="144" height="49.4" rx="6" fill="#1C1C1C"/>
<path d="M44.2652 13.5624H41.3171V14.4421H43.4081C43.3047 15.6757 42.2841 16.2018 41.3207 16.2018C40.0881 16.2018 39.0124 15.2266 39.0124 13.8598C39.0124 12.5283 40.0378 11.503 41.3233 11.503C42.3153 11.503 42.8997 12.1386 42.8997 12.1386L43.5122 11.5008C43.5122 11.5008 42.726 10.6207 41.292 10.6207C39.4661 10.6207 38.0536 12.1703 38.0536 13.844C38.0536 15.4842 39.3823 17.0833 41.3385 17.0833C43.0592 17.0833 44.3187 15.8983 44.3187 14.1457C44.3187 13.776 44.2652 13.5624 44.2652 13.5624Z" fill="white"/>
<path d="M44.8207 27.74H51.2989C51.3035 27.7585 51.416 28.2255 51.416 29.0215C51.416 32.8725 48.6485 35.4769 44.8678 35.4769C40.569 35.4769 37.6492 31.9628 37.6492 28.3589C37.6492 24.6809 40.7533 21.2758 44.7655 21.276C47.9165 21.276 49.6441 23.2098 49.6441 23.2098L48.298 24.6114C48.298 24.6114 47.0138 23.2142 44.8342 23.2142C42.0095 23.2142 39.7565 25.4675 39.7565 28.3933C39.7565 31.3965 42.1199 33.5395 44.8284 33.5395C46.9453 33.5395 49.1881 32.3834 49.4152 29.6729H44.8207V27.74Z" fill="white"/>
<path fill-rule="evenodd" clip-rule="evenodd" d="M52.2425 30.867C52.2425 28.4297 54.1475 26.3401 56.8059 26.3401C58.9909 26.3401 61.3605 27.897 61.3605 30.92C61.3605 33.5575 59.3234 35.4686 56.8369 35.4686C54.0901 35.4686 52.2425 33.3401 52.2425 30.867ZM59.3782 30.908C59.3782 29.1956 58.1395 28.1328 56.8321 28.1328C55.3634 28.1328 54.2345 29.3137 54.2345 30.8947C54.2345 32.5104 55.3775 33.677 56.8262 33.677C58.1446 33.677 59.3782 32.5839 59.3782 30.908Z" fill="white"/>
<path fill-rule="evenodd" clip-rule="evenodd" d="M66.8381 26.3401C64.1798 26.3401 62.2747 28.4297 62.2747 30.867C62.2747 33.3401 64.1224 35.4686 66.8693 35.4686C69.3557 35.4686 71.3928 33.5575 71.3928 30.92C71.3928 27.897 69.0233 26.3401 66.8381 26.3401ZM66.8644 28.1328C68.1716 28.1328 69.4105 29.1956 69.4105 30.908C69.4105 32.5839 68.1769 33.677 66.8583 33.677C65.4098 33.677 64.2669 32.5104 64.2669 30.8947C64.2669 29.3137 65.3955 28.1328 66.8644 28.1328Z" fill="white"/>
<path fill-rule="evenodd" clip-rule="evenodd" d="M72.3067 30.9054C72.3067 28.4937 74.2248 26.345 76.6645 26.345C77.7268 26.345 78.527 26.7583 79.1121 27.3924V26.6194H81.0153V34.8208C81.0153 38.0432 79.1663 39.5793 76.7403 39.5793C74.5225 39.5793 73.2766 38.2082 72.6576 36.8917L74.4022 36.1583C74.6439 36.7465 75.3394 37.7836 76.7259 37.7836C78.1611 37.7836 79.112 36.8402 79.112 35.2655V34.3655C78.6042 34.9581 77.9164 35.4746 76.6224 35.4746C74.5302 35.4746 72.3067 33.6528 72.3067 30.9054ZM76.8411 28.1341C78.0375 28.1341 79.2659 29.1612 79.2659 30.9152C79.2659 32.698 78.04 33.6805 76.8147 33.6805C75.5141 33.6805 74.3037 32.6185 74.3037 30.9321C74.3037 29.1798 75.5608 28.1341 76.8411 28.1341Z" fill="white"/>
<path fill-rule="evenodd" clip-rule="evenodd" d="M85.6434 30.8922C85.6434 28.1753 87.5758 26.3339 89.8773 26.3339C91.6926 26.3339 93.0642 27.5514 93.6522 29.0087L93.9683 29.753L87.8816 32.2924C88.2452 32.9729 88.832 33.6756 90.108 33.6757C91.244 33.6757 91.9248 33.0547 92.332 32.4192L93.9011 33.469C93.1976 34.4157 92.0189 35.472 90.0984 35.472C87.7973 35.472 85.6434 33.7671 85.6434 30.8922ZM89.9568 28.0895C90.7861 28.0895 91.3829 28.5327 91.6364 29.0644L87.5716 30.7726C87.3965 29.4501 88.6427 28.0895 89.9568 28.0895Z" fill="white"/>
<path d="M84.5408 35.2011H82.5415V21.748H84.5408V35.2011Z" fill="white"/>
<path d="M109.347 35.2011H111.346V21.748H109.347V35.2011Z" fill="white"/>
<path fill-rule="evenodd" clip-rule="evenodd" d="M100.744 35.2011H98.7445V21.748L103.581 21.7478C105.925 21.7478 107.843 23.6764 107.843 26.0336C107.843 28.3907 105.925 30.3192 103.581 30.3192H100.744V35.2011ZM100.744 28.3089V23.7581H103.581C104.821 23.7581 105.844 24.7859 105.844 26.0336C105.844 27.2811 104.821 28.3089 103.581 28.3089H100.744Z" fill="white"/>
<path d="M126.107 39.5793L131.896 26.3342H129.712L127.092 32.328L124.473 26.3342H122.289L126 34.8262L123.923 39.5793H126.107Z" fill="white"/>
<path fill-rule="evenodd" clip-rule="evenodd" d="M119.528 35.2011H121.527V30.3625C121.84 25.3723 115.548 24.1986 113.167 27.796L114.776 28.8815C115.94 26.8351 119.262 27.306 119.481 29.4991C118.482 29.2332 117.404 29.0404 116.418 29.1407C114.88 29.2972 113.563 30.2794 113.354 31.888C113.241 32.7574 113.434 33.8289 114.037 34.4819C114.978 35.4994 116.522 35.6365 117.791 35.2888C118.505 35.0931 119.067 34.6664 119.528 34.1152V35.2011ZM117.316 33.5353C118.41 33.2357 119.272 32.4309 119.528 31.3122C118.969 31.13 118.454 30.983 117.864 30.9114C114.429 30.3921 115.004 34.169 117.316 33.5353Z" fill="white"/>
<path d="M57.225 16.9579H56.3152V10.8356H57.225V16.9579Z" fill="white"/>
<path d="M51.2199 16.9579H52.1298V11.7504H53.6233V10.8356H49.7264V11.7504H51.2199V16.9579Z" fill="white"/>
<path d="M48.7672 16.9579H45.2779V10.8356H48.7672V11.7504H46.1878V13.4394H48.4566V14.3541H46.1878V16.043H48.7672V16.9579Z" fill="white"/>
<path d="M60.369 16.9579V11.7504H61.8624V10.8356H57.9657V11.7504H59.4592V16.9579H60.369Z" fill="white"/>
<path fill-rule="evenodd" clip-rule="evenodd" d="M64.2035 13.844C64.2035 12.1702 65.616 10.6207 67.442 10.6207C69.268 10.6207 70.6805 12.1702 70.6805 13.844C70.6805 15.471 69.3728 17.0576 67.442 17.0827C65.5112 17.0576 64.2035 15.471 64.2035 13.844ZM67.442 16.2014C66.2214 16.1863 65.1624 15.216 65.1624 13.8598C65.1624 12.5392 66.1712 11.5197 67.442 11.5032C68.7129 11.5197 69.7216 12.5392 69.7216 13.8598C69.7216 15.216 68.6626 16.1863 67.442 16.2014Z" fill="white"/>
<path d="M72.4992 16.9579H71.5893V10.8356H72.4992L75.4198 15.2929V10.8356H76.3297V16.9579H75.4214L72.4992 12.4983V16.9579Z" fill="white"/>
<path d="M13.2105 18.2572L23.4904 28.5783L13.2599 38.9899C12.9613 38.7991 12.8013 38.386 12.7986 37.8525L12.7058 19.3735C12.703 18.7892 12.9144 18.4328 13.2105 18.2572Z" fill="white"/>
<path d="M14.3799 18.2712L26.8803 25.1286L23.9156 28.1454L13.9437 18.1333C14.0947 18.1533 14.2464 18.1979 14.3799 18.2712Z" fill="white"/>
<path d="M27.4362 31.6801L24.3439 28.5753L27.4331 25.4318L31.6872 27.7652C32.7352 28.3398 32.1992 29.0586 31.6872 29.3403L27.4362 31.6801Z" fill="white"/>
<path d="M14.3799 38.8651C14.2855 38.9181 14.1945 38.9597 14.1073 38.9927L23.9186 29.0082L26.8829 31.9843L14.3799 38.8651Z" fill="white"/>
</svg>
