<svg
							width="20"
							height="20"
							viewBox="0 0 20 20"
							fill="none"
							xmlns="http://www.w3.org/2000/svg"
						>
							<path
								d="M16.6667 1.66667H6.66667C5.75 1.66667 5 2.41667 5 3.33334V13.3333C5 14.25 5.75 15 6.66667 15H16.6667C17.5833 15 18.3333 14.25 18.3333 13.3333V3.33334C18.3333 2.41667 17.5833 1.66667 16.6667 1.66667ZM8 11L9.15 9.475C9.31667 9.25 9.65 9.25 9.81667 9.475L10.8333 10.8333L12.6917 8.35834C12.8583 8.13334 13.1917 8.13334 13.3583 8.35834L15.3417 11C15.3881 11.0619 15.4164 11.1355 15.4233 11.2126C15.4303 11.2897 15.4156 11.3671 15.381 11.4363C15.3464 11.5056 15.2932 11.5638 15.2274 11.6044C15.1616 11.6451 15.0857 11.6667 15.0083 11.6667H8.34167C8.26358 11.6682 8.18662 11.6478 8.11957 11.6078C8.05253 11.5677 7.99809 11.5096 7.96246 11.4401C7.92684 11.3706 7.91147 11.2925 7.91811 11.2147C7.92475 11.1369 7.95312 11.0625 8 11Z"
								fill="#067AC2"
							/>
							<path
								d="M2.49935 5C2.04102 5 1.66602 5.375 1.66602 5.83333V16.6667C1.66602 17.5833 2.41602 18.3333 3.33268 18.3333H14.166C14.6243 18.3333 14.9993 17.9583 14.9993 17.5C14.9993 17.0417 14.6243 16.6667 14.166 16.6667H3.33268V5.83333C3.33268 5.375 2.95768 5 2.49935 5Z"
								fill="#067AC2"
							/>
						</svg>