						<svg
							width="20"
							height="20"
							viewBox="0 0 20 20"
							fill="none"
							xmlns="http://www.w3.org/2000/svg"
						>
							<path
								d="M17.4907 20H2.50537C1.81594 20 1.22732 19.7559 0.73952 19.2676C0.251715 18.7793 0.0078125 18.1901 0.0078125 17.5V2.5C0.0078125 1.8099 0.251715 1.2207 0.73952 0.732422C1.22732 0.244141 1.81594 0 2.50537 0H17.4907C18.1802 0 18.7688 0.244141 19.2566 0.732422C19.7444 1.2207 19.9883 1.8099 19.9883 2.5V17.5C19.9883 18.1901 19.7444 18.7793 19.2566 19.2676C18.7688 19.7559 18.1802 20 17.4907 20ZM9.99806 5C8.61919 5 7.44196 5.48828 6.46635 6.46484C5.49074 7.44141 5.00293 8.61979 5.00293 10C5.00293 11.3802 5.49074 12.5586 6.46635 13.5352C7.44196 14.5117 8.61919 15 9.99806 15C11.3769 15 12.5542 14.5117 13.5298 13.5352C14.5054 12.5586 14.9932 11.3802 14.9932 10C14.9932 8.61979 14.5054 7.44141 13.5298 6.46484C12.5542 5.48828 11.3769 5 9.99806 5Z"
								fill="#067AC2"
							/>
						</svg>
