<svg width="20" height="20" viewBox="0 0 20 20" fill="none" xmlns="http://www.w3.org/2000/svg">
<path d="M8.39314 1.42857C8.25106 1.42857 8.1148 1.48501 8.01433 1.58548C7.91386 1.68594 7.85742 1.82221 7.85742 1.96429C7.85742 2.10637 7.91386 2.24263 8.01433 2.34309C8.1148 2.44356 8.25106 2.5 8.39314 2.5H9.46457V17.5H8.39314C8.25106 17.5 8.1148 17.5564 8.01433 17.6569C7.91386 17.7574 7.85742 17.8936 7.85742 18.0357C7.85742 18.1778 7.91386 18.3141 8.01433 18.4145C8.1148 18.515 8.25106 18.5714 8.39314 18.5714H11.6074C11.7495 18.5714 11.8858 18.515 11.9862 18.4145C12.0867 18.3141 12.1431 18.1778 12.1431 18.0357C12.1431 17.8936 12.0867 17.7574 11.9862 17.6569C11.8858 17.5564 11.7495 17.5 11.6074 17.5H10.536V2.5H11.6074C11.7495 2.5 11.8858 2.44356 11.9862 2.34309C12.0867 2.24263 12.1431 2.10637 12.1431 1.96429C12.1431 1.82221 12.0867 1.68594 11.9862 1.58548C11.8858 1.48501 11.7495 1.42857 11.6074 1.42857H8.39314Z" fill="#067AC2"/>
<path d="M4.46401 4.29999H8.74972V15.7286H4.46401C3.84833 15.7286 3.25786 15.484 2.82251 15.0486C2.38716 14.6133 2.14258 14.0228 2.14258 13.4071V6.62142C2.14258 6.00574 2.38716 5.41528 2.82251 4.97993C3.25786 4.54457 3.84833 4.29999 4.46401 4.29999Z" fill="#067AC2"/>
<path d="M15.5357 15.7286H11.25V4.29999H15.5357C16.1514 4.29999 16.7419 4.54457 17.1772 4.97993C17.6126 5.41528 17.8571 6.00574 17.8571 6.62142V13.4071C17.8571 14.0228 17.6126 14.6133 17.1772 15.0486C16.7419 15.484 16.1514 15.7286 15.5357 15.7286Z" fill="#067AC2"/>
</svg>
