<svg width="24" height="24" viewBox="0 0 24 24" fill="none" xmlns="http://www.w3.org/2000/svg">
<path fill-rule="evenodd" clip-rule="evenodd" d="M18.0362 5.69549L6.74866 11.34L6.07666 9.99749L17.3642 4.35449L18.0362 5.69549ZM17.3642 19.6455L6.07666 14.0025L6.75016 12.66L18.0377 18.3045L17.3657 19.6455H17.3642Z" fill="#077BC3"/>
<path fill-rule="evenodd" clip-rule="evenodd" d="M20.25 7.5C21.2446 7.5 22.1984 7.10491 22.9016 6.40165C23.6049 5.69839 24 4.74456 24 3.75C24 2.75544 23.6049 1.80161 22.9016 1.09835C22.1984 0.395088 21.2446 0 20.25 0C19.2554 0 18.3016 0.395088 17.5984 1.09835C16.8951 1.80161 16.5 2.75544 16.5 3.75C16.5 4.74456 16.8951 5.69839 17.5984 6.40165C18.3016 7.10491 19.2554 7.5 20.25 7.5ZM20.25 24C21.2446 24 22.1984 23.6049 22.9016 22.9016C23.6049 22.1984 24 21.2446 24 20.25C24 19.2554 23.6049 18.3016 22.9016 17.5984C22.1984 16.8951 21.2446 16.5 20.25 16.5C19.2554 16.5 18.3016 16.8951 17.5984 17.5984C16.8951 18.3016 16.5 19.2554 16.5 20.25C16.5 21.2446 16.8951 22.1984 17.5984 22.9016C18.3016 23.6049 19.2554 24 20.25 24ZM3.75 15.75C4.74456 15.75 5.69839 15.3549 6.40165 14.6517C7.10491 13.9484 7.5 12.9946 7.5 12C7.5 11.0054 7.10491 10.0516 6.40165 9.34835C5.69839 8.64509 4.74456 8.25 3.75 8.25C2.75544 8.25 1.80161 8.64509 1.09835 9.34835C0.395088 10.0516 0 11.0054 0 12C0 12.9946 0.395088 13.9484 1.09835 14.6517C1.80161 15.3549 2.75544 15.75 3.75 15.75Z" fill="#077BC3"/>
</svg>
