<svg width="65" height="58" viewBox="0 0 65 58" fill="none" xmlns="http://www.w3.org/2000/svg">
<path d="M65 24.2745C65 28.6039 63.5491 32.6035 60.6473 36.2735C57.7455 39.9434 53.8039 42.8421 48.8225 44.9694C43.8411 47.0968 38.4003 48.1604 32.5 48.1604C30.8073 48.1604 29.0541 48.0609 27.2405 47.8619C22.4526 52.2161 16.8908 55.2267 10.5552 56.8937C9.37035 57.2421 7.992 57.5158 6.4202 57.7148C6.00911 57.7646 5.64035 57.6526 5.3139 57.3789C4.98744 57.1052 4.77586 56.7444 4.67913 56.2966V56.2593C4.60658 56.1597 4.60054 56.0105 4.66099 55.8114C4.72145 55.6124 4.74563 55.4879 4.73354 55.4382C4.72145 55.3884 4.77586 55.2702 4.89676 55.0836L5.1144 54.7477L5.3683 54.4305L5.65848 54.0946C5.82775 53.8956 6.20257 53.4664 6.78292 52.807C7.36328 52.1477 7.78041 51.6749 8.03432 51.3888C8.28823 51.1026 8.66304 50.6112 9.15876 49.9146C9.65448 49.2179 10.0474 48.5834 10.3376 48.0112C10.6278 47.4389 10.9542 46.7049 11.317 45.8092C11.6797 44.9135 11.994 43.968 12.26 42.9727C8.46354 40.7583 5.47108 38.0214 3.28264 34.7619C1.09422 31.5025 0 28.0067 0 24.2745C0 21.04 0.858445 17.9485 2.57533 15.0001C4.29222 12.0517 6.60156 9.50756 9.50335 7.36778C12.4051 5.228 15.8631 3.52986 19.8772 2.27336C23.8914 1.01686 28.099 0.388611 32.5 0.388611C38.4003 0.388611 43.8411 1.45228 48.8225 3.57962C53.8039 5.70696 57.7455 8.60562 60.6473 12.2756C63.5491 15.9456 65 19.9452 65 24.2745ZM4.64286 27.9321C5.17485 32.6346 7.81064 34.9859 12.5502 34.9859C14.7507 34.9859 16.5825 34.4634 18.0455 33.4184C19.5085 32.3733 20.24 30.7685 20.24 28.6039C20.24 27.7081 20.113 26.9119 19.8591 26.2153C19.6052 25.5186 19.2848 24.9401 18.8979 24.4798C18.511 24.0195 17.9911 23.609 17.3382 23.2482C16.6853 22.8874 16.0565 22.6013 15.452 22.3898C14.8475 22.1783 14.0978 21.9606 13.2031 21.7367C11.2686 21.2888 10.0353 20.7787 9.50335 20.2065C9.21317 19.883 9.06808 19.5222 9.06808 19.1241C9.06808 18.4026 9.40662 17.8801 10.0837 17.5566C10.7608 17.2332 11.4983 17.0714 12.2963 17.0714C13.3603 17.0714 14.1643 17.3016 14.7084 17.7619C15.2525 18.2222 15.6092 18.9873 15.7785 20.0572L19.6596 19.9079C19.5871 17.7681 18.8858 16.1819 17.5558 15.1494C16.2258 14.1168 14.4847 13.6005 12.3326 13.6005C10.3981 13.6005 8.75372 14.0857 7.39955 15.0561C6.04539 16.0264 5.3683 17.4695 5.3683 19.3854C5.3683 21.1519 5.91239 22.508 7.00056 23.4534C8.08873 24.3989 9.57589 25.1205 11.4621 25.6181C11.5588 25.643 11.861 25.7114 12.3689 25.8234C12.8767 25.9353 13.2515 26.0287 13.4933 26.1033C13.7351 26.1779 14.0737 26.2961 14.5089 26.4579C14.9442 26.6196 15.2706 26.7875 15.4883 26.9617C15.7059 27.1359 15.9054 27.3722 16.0868 27.6708C16.2681 27.9694 16.3588 28.2928 16.3588 28.6412C16.3588 29.6115 15.978 30.3269 15.2162 30.7872C14.4545 31.2475 13.5779 31.4776 12.5865 31.4776C10.2651 31.4776 8.87463 30.1714 8.41518 27.5588L4.64286 27.9321ZM23.4682 34.65H27.0229L27.0592 18.3777L30.7952 34.65H34.5312L38.3036 18.3777L38.3398 34.65H41.9308V14.011H36.091L32.7176 28.044L29.2718 14.011H23.4682V34.65ZM44.76 27.9321C45.292 32.6346 47.9399 34.9859 52.7037 34.9859C54.88 34.9859 56.6997 34.4634 58.1627 33.4184C59.6256 32.3733 60.3571 30.7685 60.3571 28.6039C60.3571 27.4842 60.1879 26.5263 59.8493 25.7301C59.5108 24.9339 58.9727 24.2807 58.2352 23.7707C57.4977 23.2606 56.7783 22.8687 56.077 22.5951C55.3757 22.3214 54.4568 22.0352 53.3203 21.7367C51.3858 21.2888 50.1525 20.7787 49.6205 20.2065C49.3304 19.883 49.1853 19.5222 49.1853 19.1241C49.1853 18.4026 49.5238 17.8801 50.2009 17.5566C50.878 17.2332 51.6155 17.0714 52.4135 17.0714C53.4775 17.0714 54.2876 17.3016 54.8438 17.7619C55.3999 18.2222 55.7626 18.9873 55.9319 20.0572L59.8131 19.9079C59.7405 17.7681 59.0392 16.1819 57.7093 15.1494C56.3793 14.1168 54.6382 13.6005 52.486 13.6005C50.5515 13.6005 48.9011 14.0857 47.5349 15.0561C46.1686 16.0264 45.4855 17.4695 45.4855 19.3854C45.4855 21.1519 46.0356 22.508 47.1359 23.4534C48.2361 24.3989 49.7294 25.1205 51.6155 25.6181C51.7364 25.643 52.0387 25.7114 52.5223 25.8234C53.006 25.9353 53.3687 26.0287 53.6105 26.1033C53.8523 26.1779 54.1848 26.2961 54.608 26.4579C55.0312 26.6196 55.3576 26.7875 55.5873 26.9617C55.8171 27.1359 56.0226 27.3722 56.204 27.6708C56.3853 27.9694 56.476 28.2928 56.476 28.6412C56.476 29.6115 56.1012 30.3269 55.3516 30.7872C54.6019 31.2475 53.7314 31.4776 52.74 31.4776C50.3702 31.4776 48.9797 30.1714 48.5686 27.5588L44.76 27.9321Z" fill="#4E4E4E"/>
</svg>
