<svg width="30" height="22" viewBox="0 0 30 22" fill="none" xmlns="http://www.w3.org/2000/svg">
<path fill-rule="evenodd" clip-rule="evenodd" d="M5.1875 0.75C5.461 0.75 5.72331 0.848772 5.9167 1.02459C6.1101 1.2004 6.21875 1.43886 6.21875 1.6875V20.4375C6.21875 20.6861 6.1101 20.9246 5.9167 21.1004C5.72331 21.2762 5.461 21.375 5.1875 21.375C4.914 21.375 4.65169 21.2762 4.4583 21.1004C4.2649 20.9246 4.15625 20.6861 4.15625 20.4375V1.6875C4.15625 1.43886 4.2649 1.2004 4.4583 1.02459C4.65169 0.848772 4.914 0.75 5.1875 0.75Z" fill="black"/>
<path fill-rule="evenodd" clip-rule="evenodd" d="M10.0427 16.0238C10.1387 16.1108 10.2149 16.2143 10.2669 16.3282C10.3189 16.4421 10.3457 16.5642 10.3457 16.6875C10.3457 16.8108 10.3189 16.9329 10.2669 17.0468C10.2149 17.1607 10.1387 17.2642 10.0427 17.3513L5.91771 21.1013C5.82191 21.1886 5.70811 21.2578 5.58283 21.3051C5.45754 21.3524 5.32323 21.3767 5.18758 21.3767C5.05194 21.3767 4.91762 21.3524 4.79234 21.3051C4.66705 21.2578 4.55325 21.1886 4.45746 21.1013L0.332457 17.3513C0.138816 17.1752 0.0300293 16.9365 0.0300293 16.6875C0.0300293 16.4385 0.138816 16.1998 0.332457 16.0238C0.526098 15.8477 0.788732 15.7488 1.06258 15.7488C1.33643 15.7488 1.59907 15.8477 1.79271 16.0238L5.18758 19.1119L8.58246 16.0238C8.67825 15.9364 8.79205 15.8672 8.91734 15.8199C9.04263 15.7727 9.17694 15.7483 9.31258 15.7483C9.44823 15.7483 9.58254 15.7727 9.70783 15.8199C9.83311 15.8672 9.94691 15.9364 10.0427 16.0238ZM13.4376 14.8125C13.4376 14.5639 13.5462 14.3254 13.7396 14.1496C13.933 13.9738 14.1953 13.875 14.4688 13.875H20.6563C20.9298 13.875 21.1921 13.9738 21.3855 14.1496C21.5789 14.3254 21.6876 14.5639 21.6876 14.8125C21.6876 15.0611 21.5789 15.2996 21.3855 15.4754C21.1921 15.6512 20.9298 15.75 20.6563 15.75H14.4688C14.1953 15.75 13.933 15.6512 13.7396 15.4754C13.5462 15.2996 13.4376 15.0611 13.4376 14.8125ZM13.4376 9.1875C13.4376 8.93886 13.5462 8.7004 13.7396 8.52459C13.933 8.34877 14.1953 8.25 14.4688 8.25H24.7813C25.0548 8.25 25.3171 8.34877 25.5105 8.52459C25.7039 8.7004 25.8126 8.93886 25.8126 9.1875C25.8126 9.43614 25.7039 9.6746 25.5105 9.85041C25.3171 10.0262 25.0548 10.125 24.7813 10.125H14.4688C14.1953 10.125 13.933 10.0262 13.7396 9.85041C13.5462 9.6746 13.4376 9.43614 13.4376 9.1875ZM13.4376 3.5625C13.4376 3.31386 13.5462 3.0754 13.7396 2.89959C13.933 2.72377 14.1953 2.625 14.4688 2.625H28.9063C29.1798 2.625 29.4421 2.72377 29.6355 2.89959C29.8289 3.0754 29.9376 3.31386 29.9376 3.5625C29.9376 3.81114 29.8289 4.0496 29.6355 4.22541C29.4421 4.40123 29.1798 4.5 28.9063 4.5H14.4688C14.1953 4.5 13.933 4.40123 13.7396 4.22541C13.5462 4.0496 13.4376 3.81114 13.4376 3.5625ZM13.4376 20.4375C13.4376 20.1889 13.5462 19.9504 13.7396 19.7746C13.933 19.5988 14.1953 19.5 14.4688 19.5H16.5313C16.8048 19.5 17.0671 19.5988 17.2605 19.7746C17.4539 19.9504 17.5626 20.1889 17.5626 20.4375C17.5626 20.6861 17.4539 20.9246 17.2605 21.1004C17.0671 21.2762 16.8048 21.375 16.5313 21.375H14.4688C14.1953 21.375 13.933 21.2762 13.7396 21.1004C13.5462 20.9246 13.4376 20.6861 13.4376 20.4375Z" fill="black"/>
</svg>
