<svg width="55" height="56" viewBox="0 0 55 56" fill="none" xmlns="http://www.w3.org/2000/svg">
<path d="M26.0538 34.777C28.3518 33.2505 30.0974 31.0248 31.0321 28.4291C31.9668 25.8335 32.041 23.0059 31.2437 20.3648C30.4465 17.7237 28.8201 15.4094 26.6053 13.7645C24.3906 12.1196 21.7051 11.2314 18.9462 11.2314C16.1874 11.2314 13.5019 12.1196 11.2872 13.7645C9.07238 15.4094 7.44602 17.7237 6.64877 20.3648C5.85151 23.0059 5.92573 25.8335 6.86044 28.4291C7.79515 31.0248 9.54068 33.2505 11.8387 34.777C7.92132 36.2221 4.53558 38.8235 2.13024 42.2364C1.99902 42.4203 1.90545 42.6282 1.85493 42.8484C1.8044 43.0685 1.79792 43.2965 1.83585 43.5191C1.87378 43.7418 1.95538 43.9548 2.07594 44.1457C2.1965 44.3367 2.35366 44.502 2.53835 44.632C2.72304 44.762 2.93162 44.8542 3.15209 44.9033C3.37256 44.9524 3.60056 44.9574 3.82296 44.918C4.04537 44.8786 4.25778 44.7956 4.44798 44.6738C4.63818 44.552 4.80241 44.3938 4.93122 44.2082C6.51187 41.9596 8.61039 40.1243 11.0496 38.8573C13.4888 37.5904 16.197 36.9289 18.9456 36.9288C21.6942 36.9287 24.4025 37.59 26.8417 38.8568C29.281 40.1237 31.3796 41.9588 32.9604 44.2074C33.0898 44.3915 33.2542 44.5484 33.4443 44.669C33.6343 44.7896 33.8463 44.8716 34.068 44.9102C34.2898 44.9488 34.517 44.9433 34.7366 44.8941C34.9562 44.8449 35.164 44.7528 35.348 44.6232C35.5321 44.4936 35.6888 44.329 35.8091 44.1388C35.9295 43.9487 36.0112 43.7366 36.0496 43.5148C36.088 43.293 36.0822 43.0658 36.0328 42.8463C35.9833 42.6267 35.891 42.419 35.7612 42.2351C33.356 38.8228 29.9706 36.2218 26.0538 34.7768V34.777ZM9.52607 24.0835C9.52607 22.2204 10.0785 20.3991 11.1136 18.85C12.1487 17.3009 13.6199 16.0935 15.3412 15.3805C17.0625 14.6675 18.9566 14.481 20.7839 14.8444C22.6112 15.2079 24.2897 16.1051 25.6071 17.4225C26.9246 18.7399 27.8217 20.4184 28.1852 22.2458C28.5487 24.0731 28.3621 25.9671 27.6492 27.6884C26.9362 29.4097 25.7288 30.8809 24.1797 31.916C22.6305 32.9511 20.8093 33.5036 18.9461 33.5036C16.4487 33.5008 14.0543 32.5074 12.2883 30.7414C10.5223 28.9754 9.5289 26.581 9.52607 24.0835ZM52.8002 44.6218C52.6163 44.7514 52.4087 44.8434 52.1892 44.8927C51.9697 44.942 51.7427 44.9475 51.5211 44.9091C51.2995 44.8706 51.0876 44.7888 50.8976 44.6685C50.7076 44.5481 50.5432 44.3915 50.4137 44.2076C48.831 41.9611 46.7321 40.1274 44.2933 38.8608C41.8546 37.5942 39.1474 36.9318 36.3994 36.9291C35.9451 36.9291 35.5095 36.7486 35.1883 36.4274C34.8671 36.1062 34.6867 35.6706 34.6867 35.2163C34.6867 34.7621 34.8671 34.3264 35.1883 34.0052C35.5095 33.684 35.9451 33.5036 36.3994 33.5036C37.7446 33.5021 39.0738 33.2125 40.2977 32.6543C41.5217 32.0961 42.6118 31.2823 43.4949 30.2675C44.378 29.2528 45.0335 28.0607 45.4173 26.7714C45.8011 25.4821 45.9044 24.1256 45.7201 22.7931C45.5358 21.4606 45.0683 20.183 44.349 19.0463C43.6297 17.9096 42.6752 16.9401 41.5499 16.2031C40.4246 15.4661 39.1545 14.9787 37.825 14.7736C36.4956 14.5685 35.1376 14.6505 33.8425 15.0141C33.4058 15.1352 32.939 15.0784 32.5441 14.8559C32.1493 14.6335 31.8587 14.2637 31.736 13.8275C31.6133 13.3913 31.6685 12.9242 31.8894 12.5286C32.1103 12.133 32.4791 11.841 32.9148 11.7167C35.8612 10.8854 39.0075 11.1339 41.7869 12.4173C44.5662 13.7008 46.7957 15.9348 48.0735 18.7168C49.3512 21.4987 49.5933 24.6456 48.756 27.5902C47.9187 30.5349 46.0572 33.0836 43.5068 34.777C47.4238 36.2219 50.8092 38.8229 53.2144 42.2354C53.476 42.6068 53.5793 43.0668 53.5016 43.5144C53.4239 43.9619 53.1716 44.3603 52.8002 44.6218Z" fill="white"/>
</svg>
