<svg width="56" height="56" viewBox="0 0 56 56" fill="none" xmlns="http://www.w3.org/2000/svg">
<path d="M52.1741 27.6498C47.0435 18.1651 38.0459 12.4255 28.0892 12.4255C18.1324 12.4255 9.11962 18.1651 4.03468 27.6498L3.6084 28.3654L4.00423 29.0961C9.13484 38.5809 18.1324 44.3205 28.0892 44.3205C38.0459 44.3205 47.0587 38.657 52.1741 29.0961L52.5699 28.3654L52.1741 27.6498ZM28.0892 41.1995C19.5179 41.1995 11.6469 36.4191 7.07955 28.3654C11.6469 20.3117 19.5179 15.5312 28.0892 15.5312C36.6605 15.5312 44.4401 20.3269 49.0836 28.3654C44.4401 36.4191 36.6453 41.1995 28.0892 41.1995Z" fill="white"/>
<path d="M28.5308 17.9672C26.4665 17.9823 24.4531 18.6087 22.7446 19.7674C21.0362 20.9262 19.7095 22.5652 18.9321 24.4775C18.1546 26.3898 17.9613 28.4896 18.3766 30.5117C18.7918 32.5338 19.797 34.3875 21.2652 35.8387C22.7333 37.2898 24.5986 38.2733 26.6254 38.665C28.6522 39.0567 30.7496 38.839 32.6527 38.0393C34.5558 37.2396 36.1793 35.8939 37.3181 34.1721C38.4568 32.4504 39.0598 30.4297 39.0508 28.3654C39.0448 26.9913 38.7678 25.6319 38.2355 24.3651C37.7032 23.0983 36.9261 21.949 35.9488 20.983C34.9716 20.017 33.8133 19.2534 32.5403 18.7359C31.2674 18.2184 29.9048 17.9572 28.5308 17.9672ZM28.5308 35.8101C27.0727 35.7951 25.6515 35.3496 24.4458 34.5295C23.2401 33.7094 22.3036 32.5513 21.7539 31.2007C21.2042 29.8501 21.0658 28.3672 21.3562 26.9382C21.6465 25.5092 22.3526 24.1979 23.3858 23.1689C24.419 22.1399 25.7332 21.4392 27.1634 21.1547C28.5935 20.8702 30.0759 21.0146 31.4242 21.5698C32.7726 22.125 33.9268 23.0662 34.742 24.2753C35.5571 25.4843 35.9969 26.9073 36.0059 28.3654C36.01 29.3468 35.8192 30.3192 35.4446 31.2263C35.07 32.1333 34.519 32.957 33.8237 33.6495C33.1284 34.342 32.3024 34.8896 31.3939 35.2605C30.4853 35.6314 29.5121 35.8182 28.5308 35.8101Z" fill="white"/>
</svg>
