<svg width="51" height="51" viewBox="0 0 51 51" fill="none" xmlns="http://www.w3.org/2000/svg">
<path d="M13.4345 33.5939C15.4567 33.5939 17.0979 35.2351 17.0979 37.2573V42.4865C17.0979 43.4581 16.7119 44.3899 16.0249 45.0769C15.3379 45.7639 14.4061 46.1499 13.4345 46.1499H8.20535C7.23377 46.1499 6.30198 45.7639 5.61497 45.0769C4.92795 44.3899 4.54199 43.4581 4.54199 42.4865V37.2573C4.54199 35.2351 6.18318 33.5939 8.20535 33.5939H13.4345ZM13.4345 36.734H8.20535C8.06656 36.734 7.93344 36.7891 7.8353 36.8873C7.73715 36.9854 7.68202 37.1185 7.68202 37.2573V42.4865C7.68202 42.7754 7.91647 43.0098 8.20535 43.0098H13.4345C13.5733 43.0098 13.7064 42.9547 13.8046 42.8566C13.9027 42.7584 13.9579 42.6253 13.9579 42.4865V37.2573C13.9579 37.1185 13.9027 36.9854 13.8046 36.8873C13.7064 36.7891 13.5733 36.734 13.4345 36.734ZM20.7613 37.7765H44.8452C45.243 37.7766 45.6259 37.9277 45.9166 38.1993C46.2073 38.4708 46.384 38.8426 46.4111 39.2395C46.4382 39.6363 46.3137 40.0287 46.0627 40.3372C45.8116 40.6458 45.4528 40.8476 45.0588 40.9018L44.8452 40.9165H20.7613C20.3635 40.9164 19.9806 40.7653 19.6899 40.4937C19.3992 40.2221 19.2225 39.8503 19.1954 39.4535C19.1683 39.0566 19.2928 38.6643 19.5438 38.3557C19.7949 38.0471 20.1537 37.8453 20.5477 37.7911L20.7613 37.7765H44.8452H20.7613ZM13.4345 18.9384C15.4567 18.9384 17.0979 20.5796 17.0979 22.6018V27.831C17.0979 28.8025 16.7119 29.7343 16.0249 30.4213C15.3379 31.1084 14.4061 31.4943 13.4345 31.4943H8.20535C7.23377 31.4943 6.30198 31.1084 5.61497 30.4213C4.92795 29.7343 4.54199 28.8025 4.54199 27.831V22.5997C4.54199 20.5775 6.18318 18.9363 8.20535 18.9363H13.4345V18.9384ZM13.4345 22.0784H8.20535C8.06656 22.0784 7.93344 22.1336 7.8353 22.2317C7.73715 22.3299 7.68202 22.463 7.68202 22.6018V27.831C7.68202 28.1198 7.91647 28.3543 8.20535 28.3543H13.4345C13.5733 28.3543 13.7064 28.2992 13.8046 28.201C13.9027 28.1029 13.9579 27.9698 13.9579 27.831V22.5997C13.9579 22.4609 13.9027 22.3278 13.8046 22.2296C13.7064 22.1315 13.5733 22.0763 13.4345 22.0763V22.0784ZM20.7613 23.123H44.8452C45.243 23.1231 45.6259 23.2742 45.9166 23.5458C46.2073 23.8174 46.384 24.1892 46.4111 24.586C46.4382 24.9829 46.3137 25.3752 46.0627 25.6838C45.8116 25.9924 45.4528 26.1942 45.0588 26.2484L44.8452 26.263H20.7613C20.3635 26.2629 19.9806 26.1118 19.6899 25.8402C19.3992 25.5687 19.2225 25.1969 19.1954 24.8C19.1683 24.4032 19.2928 24.0108 19.5438 23.7022C19.7949 23.3937 20.1537 23.1919 20.5477 23.1377L20.7613 23.123H44.8452H20.7613ZM13.4345 4.28287C15.4567 4.28287 17.0979 5.92405 17.0979 7.94623V13.1754C17.0979 14.147 16.7119 15.0788 16.0249 15.7658C15.3379 16.4528 14.4061 16.8388 13.4345 16.8388H8.20535C7.23377 16.8388 6.30198 16.4528 5.61497 15.7658C4.92795 15.0788 4.54199 14.147 4.54199 13.1754V7.94623C4.54199 5.92405 6.18318 4.28287 8.20535 4.28287H13.4345ZM13.4345 7.42289H8.20535C8.06656 7.42289 7.93344 7.47803 7.8353 7.57617C7.73715 7.67432 7.68202 7.80743 7.68202 7.94623V13.1754C7.68202 13.4643 7.91647 13.6988 8.20535 13.6988H13.4345C13.5733 13.6988 13.7064 13.6436 13.8046 13.5455C13.9027 13.4473 13.9579 13.3142 13.9579 13.1754V7.94623C13.9579 7.80743 13.9027 7.67432 13.8046 7.57617C13.7064 7.47803 13.5733 7.42289 13.4345 7.42289ZM20.7613 8.46957H44.8452C45.243 8.46969 45.6259 8.6208 45.9166 8.89237C46.2073 9.16393 46.384 9.53571 46.4111 9.93257C46.4382 10.3294 46.3137 10.7218 46.0627 11.0304C45.8116 11.3389 45.4528 11.5407 45.0588 11.5949L44.8452 11.6096H20.7613C20.3635 11.6095 19.9806 11.4584 19.6899 11.1868C19.3992 10.9152 19.2225 10.5435 19.1954 10.1466C19.1683 9.74973 19.2928 9.35737 19.5438 9.0488C19.7949 8.74022 20.1537 8.53844 20.5477 8.48422L20.7613 8.46957H44.8452H20.7613Z" fill="white"/>
</svg>
