<svg width="50" height="50" viewBox="0 0 50 50" fill="none" xmlns="http://www.w3.org/2000/svg">
<path d="M1.04059 6.6001C1.04059 3.56253 3.50302 1.1001 6.54059 1.1001H43.8379C46.8754 1.1001 49.3379 3.56253 49.3379 6.6001V44.0001C49.3379 47.0377 46.8755 49.5001 43.8379 49.5001H6.54059C3.50303 49.5001 1.04059 47.0377 1.04059 44.0001V6.6001Z" fill="#C4C4C4"/>
<path d="M1.04059 6.6001C1.04059 3.56253 3.50302 1.1001 6.54059 1.1001H43.8379C46.8754 1.1001 49.3379 3.56253 49.3379 6.6001V44.0001C49.3379 47.0377 46.8755 49.5001 43.8379 49.5001H6.54059C3.50303 49.5001 1.04059 47.0377 1.04059 44.0001V6.6001Z" fill="url(#paint0_linear)"/>
<path d="M1.04059 6.6001C1.04059 3.56253 3.50302 1.1001 6.54059 1.1001H43.8379C46.8754 1.1001 49.3379 3.56253 49.3379 6.6001V44.0001C49.3379 47.0377 46.8755 49.5001 43.8379 49.5001H6.54059C3.50303 49.5001 1.04059 47.0377 1.04059 44.0001V6.6001Z" stroke="#C4C4C4"/>
<path d="M1.04059 6.6001C1.04059 3.56253 3.50302 1.1001 6.54059 1.1001H43.8379C46.8754 1.1001 49.3379 3.56253 49.3379 6.6001V44.0001C49.3379 47.0377 46.8755 49.5001 43.8379 49.5001H6.54059C3.50303 49.5001 1.04059 47.0377 1.04059 44.0001V6.6001Z" stroke="url(#paint1_linear)"/>
<path fill-rule="evenodd" clip-rule="evenodd" d="M38.3311 16.1457C37.3193 16.5949 36.2319 16.8974 35.0907 17.0337C36.256 16.3359 37.1509 15.2302 37.5714 13.9125C36.4817 14.5588 35.274 15.0285 33.9884 15.2818C32.9606 14.1852 31.4928 13.5 29.8703 13.5C26.2277 13.5 23.551 16.8985 24.3737 20.4266C19.6861 20.1917 15.529 17.9458 12.7458 14.5324C11.2677 17.0681 11.9792 20.3853 14.4909 22.0651C13.5674 22.0353 12.6965 21.7821 11.9368 21.3593C11.875 23.9729 13.7484 26.4181 16.4617 26.9624C15.6677 27.1778 14.798 27.2282 13.9134 27.0586C14.6307 29.2999 16.7138 30.9304 19.1842 30.9762C16.8124 32.8359 13.824 33.6667 10.8311 33.3137C13.3279 34.9145 16.2944 35.8483 19.4799 35.8483C29.9551 35.8483 35.8733 27.0014 35.5158 19.0665C36.6181 18.2701 37.5749 17.2767 38.3311 16.1457Z" fill="white"/>
<defs>
<linearGradient id="paint0_linear" x1="49.8379" y1="24.7512" x2="0.540589" y2="24.7512" gradientUnits="userSpaceOnUse">
<stop stop-color="#067AC2"/>
<stop offset="1" stop-color="#209EDB"/>
</linearGradient>
<linearGradient id="paint1_linear" x1="49.8379" y1="24.7512" x2="0.540589" y2="24.7512" gradientUnits="userSpaceOnUse">
<stop stop-color="#067AC2"/>
<stop offset="1" stop-color="#209EDB"/>
</linearGradient>
</defs>
</svg>
