<svg width="26" height="24" viewBox="0 0 26 24" fill="none" xmlns="http://www.w3.org/2000/svg">
<g clip-path="url(#clip0)">
<path d="M26 2.92252C25.0433 3.40217 24.0153 3.72635 22.9363 3.87218C24.0377 3.12577 24.8834 1.9438 25.2816 0.535493C24.2346 1.23802 23.089 1.733 21.8944 1.99903C20.9214 0.826938 19.5351 0.0944214 18.0008 0.0944214C15.0549 0.0944214 12.6665 2.79482 12.6665 6.12543C12.6665 6.59819 12.7137 7.05844 12.8046 7.49997C8.37139 7.24837 4.44092 4.84734 1.80995 1.19842C1.35088 2.08918 1.08784 3.12531 1.08784 4.23046C1.08784 6.32294 2.02962 8.16887 3.46084 9.25048C2.61376 9.22048 1.78532 8.9618 1.04467 8.49603C1.04437 8.52129 1.04437 8.54656 1.04437 8.57193C1.04437 11.4941 2.88305 13.9317 5.32319 14.4858C4.5377 14.7273 3.71376 14.7627 2.91434 14.5892C3.59308 16.9853 5.56309 18.7289 7.8972 18.7777C6.07161 20.3952 3.77152 21.3595 1.27248 21.3595C0.841852 21.3595 0.41732 21.3309 0 21.2752C2.36062 22.9864 5.16445 23.9849 8.1768 23.9849C17.9884 23.9849 23.3537 14.7947 23.3537 6.82487C23.3537 6.56328 23.3486 6.30319 23.3383 6.04458C24.3825 5.19102 25.2839 4.13379 26 2.92252Z" fill="#55ACEE"/>
</g>
<defs>
<clipPath id="clip0">
<rect width="26" height="24" fill="white"/>
</clipPath>
</defs>
</svg>
