<svg width="138" height="137" viewBox="0 0 138 137" fill="none" xmlns="http://www.w3.org/2000/svg">
<rect x="0.578125" y="0.300858" width="136.676" height="136.676" rx="5" fill="#F7F7F7"/>
<path d="M68.9163 63.1719C65.9531 63.1719 63.4492 65.6758 63.4492 68.639C63.4492 71.6021 65.9531 74.106 68.9163 74.106C71.8794 74.106 74.3833 71.6021 74.3833 68.639C74.3833 65.6758 71.8794 63.1719 68.9163 63.1719Z" fill="#C4C4C4"/>
<path d="M83.4957 55.8825H78.7831L73.85 50.9494C73.681 50.7799 73.4802 50.6454 73.2591 50.5538C73.038 50.4621 72.8009 50.4151 72.5616 50.4155H65.2722C65.0328 50.4151 64.7957 50.4621 64.5746 50.5538C64.3535 50.6454 64.1527 50.7799 63.9838 50.9494L59.0507 55.8825H54.3381C52.328 55.8825 50.6934 57.5172 50.6934 59.5272V79.5731C50.6934 81.5831 52.328 83.2178 54.3381 83.2178H83.4957C85.5057 83.2178 87.1404 81.5831 87.1404 79.5731V59.5272C87.1404 57.5172 85.5057 55.8825 83.4957 55.8825ZM68.9169 77.7507C63.9783 77.7507 59.8051 73.5775 59.8051 68.639C59.8051 63.7004 63.9783 59.5272 68.9169 59.5272C73.8554 59.5272 78.0286 63.7004 78.0286 68.639C78.0286 73.5775 73.8554 77.7507 68.9169 77.7507Z" fill="#C4C4C4"/>
</svg>
