<svg width="62" height="65" viewBox="0 0 62 65" fill="none" xmlns="http://www.w3.org/2000/svg">
<g clip-path="url(#clip0)">
<path d="M16.387 55.5522L17.4006 56.0764C21.6243 58.6967 26.3545 59.9195 31.0849 59.9195C45.9516 59.9195 58.1152 47.3417 58.1152 31.9688C58.1152 24.6318 55.2431 17.4693 50.1751 12.2285C45.1069 6.98763 38.3491 4.01797 31.0849 4.01797C16.2182 4.01797 4.05437 16.5958 4.22342 32.1436C4.22342 37.3842 5.74387 42.4504 8.27788 46.8175L8.95359 47.8658L6.25077 58.1727L16.387 55.5522Z" fill="#00E676"/>
<path d="M53.0471 9.43338C47.3031 3.31926 39.363 0 31.2538 0C14.0222 0 0.169047 14.4994 0.337852 32.1433C0.337852 37.7335 1.8583 43.1492 4.39255 48.0404L0 64.6362L16.3871 60.2689C20.9485 62.8894 26.0165 64.1123 31.085 64.1123C48.1478 64.1123 62.001 49.6126 62.001 31.969C62.001 23.4089 58.791 15.3729 53.0473 9.43338H53.0471ZM31.2538 58.6969C26.6925 58.6969 22.1311 57.4743 18.2454 55.0285L17.2319 54.5044L7.43346 57.1247L9.96747 47.1674L9.29177 46.1191C1.8583 33.716 5.40611 17.2945 17.5697 9.60793C29.7334 1.92159 45.4448 5.5902 52.8783 18.168C60.3115 30.7459 56.7637 46.9923 44.6003 54.6789C40.7144 57.2992 35.9842 58.6967 31.2538 58.6967V58.6969ZM46.1205 39.3062L44.2622 38.4327C44.2622 38.4327 41.5594 37.2099 39.8699 36.3363C39.7008 36.3363 39.532 36.1615 39.363 36.1615C38.8561 36.1615 38.5182 36.3363 38.1804 36.5111C38.1804 36.5111 38.0116 36.6857 35.6464 39.4808C35.4773 39.8302 35.1395 40.005 34.8016 40.005H34.6326C34.4638 40.005 34.1259 39.8302 33.9569 39.6556L33.1121 39.3062C31.2538 38.4327 29.5646 37.3844 28.2129 35.987C27.8751 35.6376 27.3682 35.2883 27.0303 34.9389C25.8477 33.716 24.6651 32.3184 23.8206 30.7461L23.6515 30.3968C23.4827 30.222 23.4827 30.0474 23.3137 29.6981C23.3137 29.3487 23.3137 28.9993 23.4827 28.8245C23.4827 28.8245 24.1584 27.951 24.6651 27.4271C25.0032 27.0775 25.172 26.5536 25.5099 26.2042C25.8477 25.6801 26.0168 24.9814 25.8477 24.4572C25.6789 23.5837 23.6515 18.867 23.1449 17.8189C22.8068 17.2948 22.4692 17.1202 21.9623 16.9454H20.104C19.7659 16.9454 19.4283 17.1202 19.0902 17.1202L18.9211 17.2948C18.5833 17.4696 18.2454 17.8189 17.9076 17.9935C17.5697 18.3431 17.4007 18.6922 17.0628 19.0418C15.8802 20.614 15.2045 22.5356 15.2045 24.4572C15.2045 25.8546 15.5424 27.2523 16.0493 28.4752L16.2183 28.9993C17.7388 32.3184 19.7659 35.2883 22.4692 37.9086L23.1449 38.6073C23.6515 39.1314 24.1584 39.4808 24.4963 40.0047C28.0441 43.1494 32.0986 45.4204 36.6599 46.6432C37.1668 46.8178 37.8425 46.8178 38.3494 46.9926H40.0387C40.8834 46.9926 41.897 46.6432 42.5729 46.2939C43.0796 45.9445 43.4174 45.9445 43.7553 45.5952L44.0934 45.2456C44.4312 44.8962 44.7691 44.7216 45.1069 44.3723C45.4448 44.0229 45.7826 43.6736 45.9517 43.324C46.2895 42.6253 46.4583 41.7517 46.6274 40.8785V39.6556C46.6274 39.6556 46.4583 39.4808 46.1205 39.3062Z" fill="white"/>
</g>
<defs>
<clipPath id="clip0">
<rect width="62" height="64.8626" fill="white"/>
</clipPath>
</defs>
</svg>
