<svg width="50" height="50" viewBox="0 0 50 50" fill="none" xmlns="http://www.w3.org/2000/svg">
<path d="M0.5 6.6001C0.5 3.56253 2.96243 1.1001 6 1.1001H43.2973C46.3349 1.1001 48.7973 3.56253 48.7973 6.6001V44.0001C48.7973 47.0377 46.3349 49.5001 43.2973 49.5001H6.00001C2.96244 49.5001 0.5 47.0377 0.5 44.0001V6.6001Z" fill="#C4C4C4"/>
<path d="M0.5 6.6001C0.5 3.56253 2.96243 1.1001 6 1.1001H43.2973C46.3349 1.1001 48.7973 3.56253 48.7973 6.6001V44.0001C48.7973 47.0377 46.3349 49.5001 43.2973 49.5001H6.00001C2.96244 49.5001 0.5 47.0377 0.5 44.0001V6.6001Z" fill="url(#paint0_linear)"/>
<path d="M0.5 6.6001C0.5 3.56253 2.96243 1.1001 6 1.1001H43.2973C46.3349 1.1001 48.7973 3.56253 48.7973 6.6001V44.0001C48.7973 47.0377 46.3349 49.5001 43.2973 49.5001H6.00001C2.96244 49.5001 0.5 47.0377 0.5 44.0001V6.6001Z" stroke="#C4C4C4"/>
<path d="M0.5 6.6001C0.5 3.56253 2.96243 1.1001 6 1.1001H43.2973C46.3349 1.1001 48.7973 3.56253 48.7973 6.6001V44.0001C48.7973 47.0377 46.3349 49.5001 43.2973 49.5001H6.00001C2.96244 49.5001 0.5 47.0377 0.5 44.0001V6.6001Z" stroke="url(#paint1_linear)"/>
<path fill-rule="evenodd" clip-rule="evenodd" d="M33.3066 15.086C29.177 14.8041 19.9794 14.8052 15.8555 15.086C11.3902 15.3908 10.8643 18.0881 10.8311 25.1876C10.8643 32.2746 11.3856 34.9834 15.8555 35.2893C19.9805 35.57 29.177 35.5712 33.3066 35.2893C37.7719 34.9845 38.2978 32.2872 38.3311 25.1876C38.2978 18.1007 37.7765 15.3919 33.3066 15.086ZM21.1436 29.7709V20.6042L30.3102 25.1795L21.1436 29.7709Z" fill="white"/>
<defs>
<linearGradient id="paint0_linear" x1="49.2973" y1="24.7512" x2="2.02085e-07" y2="24.7512" gradientUnits="userSpaceOnUse">
<stop stop-color="#067AC2"/>
<stop offset="1" stop-color="#209EDB"/>
</linearGradient>
<linearGradient id="paint1_linear" x1="49.2973" y1="24.7512" x2="2.02085e-07" y2="24.7512" gradientUnits="userSpaceOnUse">
<stop stop-color="#067AC2"/>
<stop offset="1" stop-color="#209EDB"/>
</linearGradient>
</defs>
</svg>
